0
SECTION
2
HEADER
9
$INSUNITS
70
4
0
ENDSEC
0
SECTION
2
TABLES
0
TABLE
2
LTYPE
0
LTYPE
72
65
70
64
2
CONTINUOUS
3
______
73
0
40
0
0
ENDTAB
0
TABLE
2
LAYER
0
ENDTAB
0
ENDSEC
0
SECTION
2
ENTITIES
0
LINE
8
0
10
326.625
20
-192.5
11
87.375
21
-192.5
0
LINE
8
0
10
81
20
-186.125
11
81
21
-101.125
0
LINE
8
0
10
87.375
20
-94.75
11
326.625
21
-94.75
0
LINE
8
0
10
333
20
-101.125
11
333
21
-186.125
0
ARC
8
0
10
87.375
20
-186.125
40
6.375
50
180
51
270
0
ARC
8
0
10
87.375
20
-101.125
40
6.375
50
90
51
180
0
ARC
8
0
10
326.625
20
-101.125
40
6.375
50
0
51
90
0
ARC
8
0
10
326.625
20
-186.125
40
6.375
50
270
51
0
0
CIRCLE
8
0
10
193.75
20
-145.75
40
1
0
CIRCLE
8
0
10
193.75
20
-111.75
40
1
0
CIRCLE
8
0
10
220.25
20
-145.75
40
1
0
CIRCLE
8
0
10
220.25
20
-111.75
40
1
0
CIRCLE
8
0
10
87.375
20
-186.125
40
1
0
CIRCLE
8
0
10
87.375
20
-101.125
40
1
0
CIRCLE
8
0
10
326.625
20
-186.125
40
1
0
CIRCLE
8
0
10
326.625
20
-101.125
40
1
0
CIRCLE
8
0
10
90
20
-150
40
1.7
0
CIRCLE
8
0
10
90
20
-133
40
1.7
0
CIRCLE
8
0
10
90
20
-116
40
1.7
0
CIRCLE
8
0
10
108
20
-150
40
1.7
0
CIRCLE
8
0
10
108
20
-133
40
1.7
0
CIRCLE
8
0
10
108
20
-116
40
1.7
0
CIRCLE
8
0
10
126
20
-145.75
40
1.7
0
CIRCLE
8
0
10
126
20
-128.75
40
1.7
0
CIRCLE
8
0
10
126
20
-111.75
40
1.7
0
CIRCLE
8
0
10
144
20
-141.5
40
1.7
0
CIRCLE
8
0
10
144
20
-124.5
40
1.7
0
CIRCLE
8
0
10
144
20
-107.5
40
1.7
0
CIRCLE
8
0
10
162
20
-145.75
40
1.7
0
CIRCLE
8
0
10
162
20
-128.75
40
1.7
0
CIRCLE
8
0
10
162
20
-111.75
40
1.7
0
CIRCLE
8
0
10
180
20
-145.75
40
1.7
0
CIRCLE
8
0
10
180
20
-128.75
40
1.7
0
CIRCLE
8
0
10
180
20
-111.75
40
1.7
0
CIRCLE
8
0
10
155.25
20
-167
40
1.7
0
CIRCLE
8
0
10
177.75
20
-167
40
1.7
0
CIRCLE
8
0
10
195.75
20
-179.75
40
1.7
0
CIRCLE
8
0
10
324
20
-150
40
1.7
0
CIRCLE
8
0
10
324
20
-133
40
1.7
0
CIRCLE
8
0
10
324
20
-116
40
1.7
0
CIRCLE
8
0
10
306
20
-150
40
1.7
0
CIRCLE
8
0
10
306
20
-133
40
1.7
0
CIRCLE
8
0
10
306
20
-116
40
1.7
0
CIRCLE
8
0
10
288
20
-145.75
40
1.7
0
CIRCLE
8
0
10
288
20
-128.75
40
1.7
0
CIRCLE
8
0
10
288
20
-111.75
40
1.7
0
CIRCLE
8
0
10
270
20
-141.5
40
1.7
0
CIRCLE
8
0
10
270
20
-124.5
40
1.7
0
CIRCLE
8
0
10
270
20
-107.5
40
1.7
0
CIRCLE
8
0
10
252
20
-145.75
40
1.7
0
CIRCLE
8
0
10
252
20
-128.75
40
1.7
0
CIRCLE
8
0
10
252
20
-111.75
40
1.7
0
CIRCLE
8
0
10
234
20
-145.75
40
1.7
0
CIRCLE
8
0
10
234
20
-128.75
40
1.7
0
CIRCLE
8
0
10
234
20
-111.75
40
1.7
0
CIRCLE
8
0
10
258.75
20
-167
40
1.7
0
CIRCLE
8
0
10
236.25
20
-167
40
1.7
0
CIRCLE
8
0
10
218.25
20
-179.75
40
1.7
0
CIRCLE
8
0
10
95.5
20
-150
40
0.85
0
CIRCLE
8
0
10
95.5
20
-133
40
0.85
0
CIRCLE
8
0
10
95.5
20
-116
40
0.85
0
CIRCLE
8
0
10
113.5
20
-150
40
0.85
0
CIRCLE
8
0
10
113.5
20
-133
40
0.85
0
CIRCLE
8
0
10
113.5
20
-116
40
0.85
0
CIRCLE
8
0
10
131.5
20
-145.75
40
0.85
0
CIRCLE
8
0
10
131.5
20
-128.75
40
0.85
0
CIRCLE
8
0
10
131.5
20
-111.75
40
0.85
0
CIRCLE
8
0
10
149.5
20
-141.5
40
0.85
0
CIRCLE
8
0
10
149.5
20
-124.5
40
0.85
0
CIRCLE
8
0
10
149.5
20
-107.5
40
0.85
0
CIRCLE
8
0
10
167.5
20
-145.75
40
0.85
0
CIRCLE
8
0
10
167.5
20
-128.75
40
0.85
0
CIRCLE
8
0
10
167.5
20
-111.75
40
0.85
0
CIRCLE
8
0
10
185.5
20
-145.75
40
0.85
0
CIRCLE
8
0
10
185.5
20
-128.75
40
0.85
0
CIRCLE
8
0
10
185.5
20
-111.75
40
0.85
0
CIRCLE
8
0
10
160.75
20
-167
40
0.85
0
CIRCLE
8
0
10
183.25
20
-167
40
0.85
0
CIRCLE
8
0
10
201.25
20
-179.75
40
0.85
0
CIRCLE
8
0
10
318.5
20
-150
40
0.85
0
CIRCLE
8
0
10
318.5
20
-133
40
0.85
0
CIRCLE
8
0
10
318.5
20
-116
40
0.85
0
CIRCLE
8
0
10
300.5
20
-150
40
0.85
0
CIRCLE
8
0
10
300.5
20
-133
40
0.85
0
CIRCLE
8
0
10
300.5
20
-116
40
0.85
0
CIRCLE
8
0
10
282.5
20
-145.75
40
0.85
0
CIRCLE
8
0
10
282.5
20
-128.75
40
0.85
0
CIRCLE
8
0
10
282.5
20
-111.75
40
0.85
0
CIRCLE
8
0
10
264.5
20
-141.5
40
0.85
0
CIRCLE
8
0
10
264.5
20
-124.5
40
0.85
0
CIRCLE
8
0
10
264.5
20
-107.5
40
0.85
0
CIRCLE
8
0
10
246.5
20
-145.75
40
0.85
0
CIRCLE
8
0
10
246.5
20
-128.75
40
0.85
0
CIRCLE
8
0
10
246.5
20
-111.75
40
0.85
0
CIRCLE
8
0
10
228.5
20
-145.75
40
0.85
0
CIRCLE
8
0
10
228.5
20
-128.75
40
0.85
0
CIRCLE
8
0
10
228.5
20
-111.75
40
0.85
0
CIRCLE
8
0
10
253.25
20
-167
40
0.85
0
CIRCLE
8
0
10
230.75
20
-167
40
0.85
0
CIRCLE
8
0
10
212.75
20
-179.75
40
0.85
0
CIRCLE
8
0
10
84.5
20
-150
40
0.85
0
CIRCLE
8
0
10
84.5
20
-133
40
0.85
0
CIRCLE
8
0
10
84.5
20
-116
40
0.85
0
CIRCLE
8
0
10
102.5
20
-150
40
0.85
0
CIRCLE
8
0
10
102.5
20
-133
40
0.85
0
CIRCLE
8
0
10
102.5
20
-116
40
0.85
0
CIRCLE
8
0
10
120.5
20
-145.75
40
0.85
0
CIRCLE
8
0
10
120.5
20
-128.75
40
0.85
0
CIRCLE
8
0
10
120.5
20
-111.75
40
0.85
0
CIRCLE
8
0
10
138.5
20
-141.5
40
0.85
0
CIRCLE
8
0
10
138.5
20
-124.5
40
0.85
0
CIRCLE
8
0
10
138.5
20
-107.5
40
0.85
0
CIRCLE
8
0
10
156.5
20
-145.75
40
0.85
0
CIRCLE
8
0
10
156.5
20
-128.75
40
0.85
0
CIRCLE
8
0
10
156.5
20
-111.75
40
0.85
0
CIRCLE
8
0
10
174.5
20
-145.75
40
0.85
0
CIRCLE
8
0
10
174.5
20
-128.75
40
0.85
0
CIRCLE
8
0
10
174.5
20
-111.75
40
0.85
0
CIRCLE
8
0
10
149.75
20
-167
40
0.85
0
CIRCLE
8
0
10
172.25
20
-167
40
0.85
0
CIRCLE
8
0
10
190.25
20
-179.75
40
0.85
0
CIRCLE
8
0
10
329.5
20
-150
40
0.85
0
CIRCLE
8
0
10
329.5
20
-133
40
0.85
0
CIRCLE
8
0
10
329.5
20
-116
40
0.85
0
CIRCLE
8
0
10
311.5
20
-150
40
0.85
0
CIRCLE
8
0
10
311.5
20
-133
40
0.85
0
CIRCLE
8
0
10
311.5
20
-116
40
0.85
0
CIRCLE
8
0
10
293.5
20
-145.75
40
0.85
0
CIRCLE
8
0
10
293.5
20
-128.75
40
0.85
0
CIRCLE
8
0
10
293.5
20
-111.75
40
0.85
0
CIRCLE
8
0
10
275.5
20
-141.5
40
0.85
0
CIRCLE
8
0
10
275.5
20
-124.5
40
0.85
0
CIRCLE
8
0
10
275.5
20
-107.5
40
0.85
0
CIRCLE
8
0
10
257.5
20
-145.75
40
0.85
0
CIRCLE
8
0
10
257.5
20
-128.75
40
0.85
0
CIRCLE
8
0
10
257.5
20
-111.75
40
0.85
0
CIRCLE
8
0
10
239.5
20
-145.75
40
0.85
0
CIRCLE
8
0
10
239.5
20
-128.75
40
0.85
0
CIRCLE
8
0
10
239.5
20
-111.75
40
0.85
0
CIRCLE
8
0
10
264.25
20
-167
40
0.85
0
CIRCLE
8
0
10
241.75
20
-167
40
0.85
0
CIRCLE
8
0
10
223.75
20
-179.75
40
0.85
0
CIRCLE
8
0
10
90
20
-144.1
40
1.2
0
CIRCLE
8
0
10
90
20
-127.1
40
1.2
0
CIRCLE
8
0
10
90
20
-110.1
40
1.2
0
CIRCLE
8
0
10
108
20
-144.1
40
1.2
0
CIRCLE
8
0
10
108
20
-127.1
40
1.2
0
CIRCLE
8
0
10
108
20
-110.1
40
1.2
0
CIRCLE
8
0
10
126
20
-139.85
40
1.2
0
CIRCLE
8
0
10
126
20
-122.85
40
1.2
0
CIRCLE
8
0
10
126
20
-105.85
40
1.2
0
CIRCLE
8
0
10
144
20
-135.6
40
1.2
0
CIRCLE
8
0
10
144
20
-118.6
40
1.2
0
CIRCLE
8
0
10
144
20
-101.6
40
1.2
0
CIRCLE
8
0
10
162
20
-139.85
40
1.2
0
CIRCLE
8
0
10
162
20
-122.85
40
1.2
0
CIRCLE
8
0
10
162
20
-105.85
40
1.2
0
CIRCLE
8
0
10
180
20
-139.85
40
1.2
0
CIRCLE
8
0
10
180
20
-122.85
40
1.2
0
CIRCLE
8
0
10
180
20
-105.85
40
1.2
0
CIRCLE
8
0
10
155.25
20
-161.1
40
1.2
0
CIRCLE
8
0
10
177.75
20
-161.1
40
1.2
0
CIRCLE
8
0
10
195.75
20
-173.85
40
1.2
0
CIRCLE
8
0
10
324
20
-144.1
40
1.2
0
CIRCLE
8
0
10
324
20
-127.1
40
1.2
0
CIRCLE
8
0
10
324
20
-110.1
40
1.2
0
CIRCLE
8
0
10
306
20
-144.1
40
1.2
0
CIRCLE
8
0
10
306
20
-127.1
40
1.2
0
CIRCLE
8
0
10
306
20
-110.1
40
1.2
0
CIRCLE
8
0
10
288
20
-139.85
40
1.2
0
CIRCLE
8
0
10
288
20
-122.85
40
1.2
0
CIRCLE
8
0
10
288
20
-105.85
40
1.2
0
CIRCLE
8
0
10
270
20
-135.6
40
1.2
0
CIRCLE
8
0
10
270
20
-118.6
40
1.2
0
CIRCLE
8
0
10
270
20
-101.6
40
1.2
0
CIRCLE
8
0
10
252
20
-139.85
40
1.2
0
CIRCLE
8
0
10
252
20
-122.85
40
1.2
0
CIRCLE
8
0
10
252
20
-105.85
40
1.2
0
CIRCLE
8
0
10
234
20
-139.85
40
1.2
0
CIRCLE
8
0
10
234
20
-122.85
40
1.2
0
CIRCLE
8
0
10
234
20
-105.85
40
1.2
0
CIRCLE
8
0
10
258.75
20
-161.1
40
1.2
0
CIRCLE
8
0
10
236.25
20
-161.1
40
1.2
0
CIRCLE
8
0
10
218.25
20
-173.85
40
1.2
0
CIRCLE
8
0
10
95
20
-146.2
40
1.2
0
CIRCLE
8
0
10
95
20
-129.2
40
1.2
0
CIRCLE
8
0
10
95
20
-112.2
40
1.2
0
CIRCLE
8
0
10
113
20
-146.2
40
1.2
0
CIRCLE
8
0
10
113
20
-129.2
40
1.2
0
CIRCLE
8
0
10
113
20
-112.2
40
1.2
0
CIRCLE
8
0
10
131
20
-141.95
40
1.2
0
CIRCLE
8
0
10
131
20
-124.95
40
1.2
0
CIRCLE
8
0
10
131
20
-107.95
40
1.2
0
CIRCLE
8
0
10
149
20
-137.7
40
1.2
0
CIRCLE
8
0
10
149
20
-120.7
40
1.2
0
CIRCLE
8
0
10
149
20
-103.7
40
1.2
0
CIRCLE
8
0
10
167
20
-141.95
40
1.2
0
CIRCLE
8
0
10
167
20
-124.95
40
1.2
0
CIRCLE
8
0
10
167
20
-107.95
40
1.2
0
CIRCLE
8
0
10
185
20
-141.95
40
1.2
0
CIRCLE
8
0
10
185
20
-124.95
40
1.2
0
CIRCLE
8
0
10
185
20
-107.95
40
1.2
0
CIRCLE
8
0
10
160.25
20
-163.2
40
1.2
0
CIRCLE
8
0
10
182.75
20
-163.2
40
1.2
0
CIRCLE
8
0
10
200.75
20
-175.95
40
1.2
0
CIRCLE
8
0
10
329
20
-146.2
40
1.2
0
CIRCLE
8
0
10
329
20
-129.2
40
1.2
0
CIRCLE
8
0
10
329
20
-112.2
40
1.2
0
CIRCLE
8
0
10
311
20
-146.2
40
1.2
0
CIRCLE
8
0
10
311
20
-129.2
40
1.2
0
CIRCLE
8
0
10
311
20
-112.2
40
1.2
0
CIRCLE
8
0
10
293
20
-141.95
40
1.2
0
CIRCLE
8
0
10
293
20
-124.95
40
1.2
0
CIRCLE
8
0
10
293
20
-107.95
40
1.2
0
CIRCLE
8
0
10
275
20
-137.7
40
1.2
0
CIRCLE
8
0
10
275
20
-120.7
40
1.2
0
CIRCLE
8
0
10
275
20
-103.7
40
1.2
0
CIRCLE
8
0
10
257
20
-141.95
40
1.2
0
CIRCLE
8
0
10
257
20
-124.95
40
1.2
0
CIRCLE
8
0
10
257
20
-107.95
40
1.2
0
CIRCLE
8
0
10
239
20
-141.95
40
1.2
0
CIRCLE
8
0
10
239
20
-124.95
40
1.2
0
CIRCLE
8
0
10
239
20
-107.95
40
1.2
0
CIRCLE
8
0
10
263.75
20
-163.2
40
1.2
0
CIRCLE
8
0
10
241.25
20
-163.2
40
1.2
0
CIRCLE
8
0
10
223.25
20
-175.95
40
1.2
0
ENDSEC
0
EOF