0
SECTION
2
HEADER
9
$INSUNITS
70
4
0
ENDSEC
0
SECTION
2
TABLES
0
TABLE
2
LTYPE
0
LTYPE
72
65
70
64
2
CONTINUOUS
3
______
73
0
40
0
0
ENDTAB
0
TABLE
2
LAYER
0
ENDTAB
0
ENDSEC
0
SECTION
2
ENTITIES
0
LINE
8
0
10
326.625
20
-192.5
11
87.375
21
-192.5
0
LINE
8
0
10
81
20
-186.125
11
81
21
-101.125
0
LINE
8
0
10
87.375
20
-94.75
11
326.625
21
-94.75
0
LINE
8
0
10
333
20
-101.125
11
333
21
-186.125
0
ARC
8
0
10
87.375
20
-186.125
40
6.375
50
180
51
270
0
ARC
8
0
10
87.375
20
-101.125
40
6.375
50
90
51
180
0
ARC
8
0
10
326.625
20
-101.125
40
6.375
50
0
51
90
0
ARC
8
0
10
326.625
20
-186.125
40
6.375
50
270
51
0
0
LINE
8
0
10
81.25
20
-158.25
11
98.75
21
-158.25
0
LINE
8
0
10
98.75
20
-158.25
11
98.75
21
-141.75
0
LINE
8
0
10
98.75
20
-141.75
11
81.25
21
-141.75
0
LINE
8
0
10
81.25
20
-141.75
11
81.25
21
-158.25
0
LINE
8
0
10
81.25
20
-141.25
11
98.75
21
-141.25
0
LINE
8
0
10
98.75
20
-141.25
11
98.75
21
-124.75
0
LINE
8
0
10
98.75
20
-124.75
11
81.25
21
-124.75
0
LINE
8
0
10
81.25
20
-124.75
11
81.25
21
-141.25
0
LINE
8
0
10
81.25
20
-124.25
11
98.75
21
-124.25
0
LINE
8
0
10
98.75
20
-124.25
11
98.75
21
-107.75
0
LINE
8
0
10
98.75
20
-107.75
11
81.25
21
-107.75
0
LINE
8
0
10
81.25
20
-107.75
11
81.25
21
-124.25
0
LINE
8
0
10
99.25
20
-158.25
11
116.75
21
-158.25
0
LINE
8
0
10
116.75
20
-158.25
11
116.75
21
-141.75
0
LINE
8
0
10
116.75
20
-141.75
11
99.25
21
-141.75
0
LINE
8
0
10
99.25
20
-141.75
11
99.25
21
-158.25
0
LINE
8
0
10
99.25
20
-141.25
11
116.75
21
-141.25
0
LINE
8
0
10
116.75
20
-141.25
11
116.75
21
-124.75
0
LINE
8
0
10
116.75
20
-124.75
11
99.25
21
-124.75
0
LINE
8
0
10
99.25
20
-124.75
11
99.25
21
-141.25
0
LINE
8
0
10
99.25
20
-124.25
11
116.75
21
-124.25
0
LINE
8
0
10
116.75
20
-124.25
11
116.75
21
-107.75
0
LINE
8
0
10
116.75
20
-107.75
11
99.25
21
-107.75
0
LINE
8
0
10
99.25
20
-107.75
11
99.25
21
-124.25
0
LINE
8
0
10
117.25
20
-154
11
134.75
21
-154
0
LINE
8
0
10
134.75
20
-154
11
134.75
21
-137.5
0
LINE
8
0
10
134.75
20
-137.5
11
117.25
21
-137.5
0
LINE
8
0
10
117.25
20
-137.5
11
117.25
21
-154
0
LINE
8
0
10
117.25
20
-137
11
134.75
21
-137
0
LINE
8
0
10
134.75
20
-137
11
134.75
21
-120.5
0
LINE
8
0
10
134.75
20
-120.5
11
117.25
21
-120.5
0
LINE
8
0
10
117.25
20
-120.5
11
117.25
21
-137
0
LINE
8
0
10
117.25
20
-120
11
134.75
21
-120
0
LINE
8
0
10
134.75
20
-120
11
134.75
21
-103.5
0
LINE
8
0
10
134.75
20
-103.5
11
117.25
21
-103.5
0
LINE
8
0
10
117.25
20
-103.5
11
117.25
21
-120
0
LINE
8
0
10
135.25
20
-149.75
11
152.75
21
-149.75
0
LINE
8
0
10
152.75
20
-149.75
11
152.75
21
-133.25
0
LINE
8
0
10
152.75
20
-133.25
11
135.25
21
-133.25
0
LINE
8
0
10
135.25
20
-133.25
11
135.25
21
-149.75
0
LINE
8
0
10
135.25
20
-132.75
11
152.75
21
-132.75
0
LINE
8
0
10
152.75
20
-132.75
11
152.75
21
-116.25
0
LINE
8
0
10
152.75
20
-116.25
11
135.25
21
-116.25
0
LINE
8
0
10
135.25
20
-116.25
11
135.25
21
-132.75
0
LINE
8
0
10
135.25
20
-115.75
11
152.75
21
-115.75
0
LINE
8
0
10
152.75
20
-115.75
11
152.75
21
-99.25
0
LINE
8
0
10
152.75
20
-99.25
11
135.25
21
-99.25
0
LINE
8
0
10
135.25
20
-99.25
11
135.25
21
-115.75
0
LINE
8
0
10
153.25
20
-154
11
170.75
21
-154
0
LINE
8
0
10
170.75
20
-154
11
170.75
21
-137.5
0
LINE
8
0
10
170.75
20
-137.5
11
153.25
21
-137.5
0
LINE
8
0
10
153.25
20
-137.5
11
153.25
21
-154
0
LINE
8
0
10
153.25
20
-137
11
170.75
21
-137
0
LINE
8
0
10
170.75
20
-137
11
170.75
21
-120.5
0
LINE
8
0
10
170.75
20
-120.5
11
153.25
21
-120.5
0
LINE
8
0
10
153.25
20
-120.5
11
153.25
21
-137
0
LINE
8
0
10
153.25
20
-120
11
170.75
21
-120
0
LINE
8
0
10
170.75
20
-120
11
170.75
21
-103.5
0
LINE
8
0
10
170.75
20
-103.5
11
153.25
21
-103.5
0
LINE
8
0
10
153.25
20
-103.5
11
153.25
21
-120
0
LINE
8
0
10
171.25
20
-154
11
188.75
21
-154
0
LINE
8
0
10
188.75
20
-154
11
188.75
21
-137.5
0
LINE
8
0
10
188.75
20
-137.5
11
171.25
21
-137.5
0
LINE
8
0
10
171.25
20
-137.5
11
171.25
21
-154
0
LINE
8
0
10
171.25
20
-137
11
188.75
21
-137
0
LINE
8
0
10
188.75
20
-137
11
188.75
21
-120.5
0
LINE
8
0
10
188.75
20
-120.5
11
171.25
21
-120.5
0
LINE
8
0
10
171.25
20
-120.5
11
171.25
21
-137
0
LINE
8
0
10
171.25
20
-120
11
188.75
21
-120
0
LINE
8
0
10
188.75
20
-120
11
188.75
21
-103.5
0
LINE
8
0
10
188.75
20
-103.5
11
171.25
21
-103.5
0
LINE
8
0
10
171.25
20
-103.5
11
171.25
21
-120
0
LINE
8
0
10
146.5
20
-175.25
11
164
21
-175.25
0
LINE
8
0
10
164
20
-175.25
11
164
21
-158.75
0
LINE
8
0
10
164
20
-158.75
11
146.5
21
-158.75
0
LINE
8
0
10
146.5
20
-158.75
11
146.5
21
-175.25
0
LINE
8
0
10
169
20
-175.25
11
186.5
21
-175.25
0
LINE
8
0
10
186.5
20
-175.25
11
186.5
21
-158.75
0
LINE
8
0
10
186.5
20
-158.75
11
169
21
-158.75
0
LINE
8
0
10
169
20
-158.75
11
169
21
-175.25
0
LINE
8
0
10
187
20
-188
11
204.5
21
-188
0
LINE
8
0
10
204.5
20
-188
11
204.5
21
-171.5
0
LINE
8
0
10
204.5
20
-171.5
11
187
21
-171.5
0
LINE
8
0
10
187
20
-171.5
11
187
21
-188
0
LINE
8
0
10
315.25
20
-158.25
11
332.75
21
-158.25
0
LINE
8
0
10
332.75
20
-158.25
11
332.75
21
-141.75
0
LINE
8
0
10
332.75
20
-141.75
11
315.25
21
-141.75
0
LINE
8
0
10
315.25
20
-141.75
11
315.25
21
-158.25
0
LINE
8
0
10
315.25
20
-141.25
11
332.75
21
-141.25
0
LINE
8
0
10
332.75
20
-141.25
11
332.75
21
-124.75
0
LINE
8
0
10
332.75
20
-124.75
11
315.25
21
-124.75
0
LINE
8
0
10
315.25
20
-124.75
11
315.25
21
-141.25
0
LINE
8
0
10
315.25
20
-124.25
11
332.75
21
-124.25
0
LINE
8
0
10
332.75
20
-124.25
11
332.75
21
-107.75
0
LINE
8
0
10
332.75
20
-107.75
11
315.25
21
-107.75
0
LINE
8
0
10
315.25
20
-107.75
11
315.25
21
-124.25
0
LINE
8
0
10
297.25
20
-158.25
11
314.75
21
-158.25
0
LINE
8
0
10
314.75
20
-158.25
11
314.75
21
-141.75
0
LINE
8
0
10
314.75
20
-141.75
11
297.25
21
-141.75
0
LINE
8
0
10
297.25
20
-141.75
11
297.25
21
-158.25
0
LINE
8
0
10
297.25
20
-141.25
11
314.75
21
-141.25
0
LINE
8
0
10
314.75
20
-141.25
11
314.75
21
-124.75
0
LINE
8
0
10
314.75
20
-124.75
11
297.25
21
-124.75
0
LINE
8
0
10
297.25
20
-124.75
11
297.25
21
-141.25
0
LINE
8
0
10
297.25
20
-124.25
11
314.75
21
-124.25
0
LINE
8
0
10
314.75
20
-124.25
11
314.75
21
-107.75
0
LINE
8
0
10
314.75
20
-107.75
11
297.25
21
-107.75
0
LINE
8
0
10
297.25
20
-107.75
11
297.25
21
-124.25
0
LINE
8
0
10
279.25
20
-154
11
296.75
21
-154
0
LINE
8
0
10
296.75
20
-154
11
296.75
21
-137.5
0
LINE
8
0
10
296.75
20
-137.5
11
279.25
21
-137.5
0
LINE
8
0
10
279.25
20
-137.5
11
279.25
21
-154
0
LINE
8
0
10
279.25
20
-137
11
296.75
21
-137
0
LINE
8
0
10
296.75
20
-137
11
296.75
21
-120.5
0
LINE
8
0
10
296.75
20
-120.5
11
279.25
21
-120.5
0
LINE
8
0
10
279.25
20
-120.5
11
279.25
21
-137
0
LINE
8
0
10
279.25
20
-120
11
296.75
21
-120
0
LINE
8
0
10
296.75
20
-120
11
296.75
21
-103.5
0
LINE
8
0
10
296.75
20
-103.5
11
279.25
21
-103.5
0
LINE
8
0
10
279.25
20
-103.5
11
279.25
21
-120
0
LINE
8
0
10
261.25
20
-149.75
11
278.75
21
-149.75
0
LINE
8
0
10
278.75
20
-149.75
11
278.75
21
-133.25
0
LINE
8
0
10
278.75
20
-133.25
11
261.25
21
-133.25
0
LINE
8
0
10
261.25
20
-133.25
11
261.25
21
-149.75
0
LINE
8
0
10
261.25
20
-132.75
11
278.75
21
-132.75
0
LINE
8
0
10
278.75
20
-132.75
11
278.75
21
-116.25
0
LINE
8
0
10
278.75
20
-116.25
11
261.25
21
-116.25
0
LINE
8
0
10
261.25
20
-116.25
11
261.25
21
-132.75
0
LINE
8
0
10
261.25
20
-115.75
11
278.75
21
-115.75
0
LINE
8
0
10
278.75
20
-115.75
11
278.75
21
-99.25
0
LINE
8
0
10
278.75
20
-99.25
11
261.25
21
-99.25
0
LINE
8
0
10
261.25
20
-99.25
11
261.25
21
-115.75
0
LINE
8
0
10
243.25
20
-154
11
260.75
21
-154
0
LINE
8
0
10
260.75
20
-154
11
260.75
21
-137.5
0
LINE
8
0
10
260.75
20
-137.5
11
243.25
21
-137.5
0
LINE
8
0
10
243.25
20
-137.5
11
243.25
21
-154
0
LINE
8
0
10
243.25
20
-137
11
260.75
21
-137
0
LINE
8
0
10
260.75
20
-137
11
260.75
21
-120.5
0
LINE
8
0
10
260.75
20
-120.5
11
243.25
21
-120.5
0
LINE
8
0
10
243.25
20
-120.5
11
243.25
21
-137
0
LINE
8
0
10
243.25
20
-120
11
260.75
21
-120
0
LINE
8
0
10
260.75
20
-120
11
260.75
21
-103.5
0
LINE
8
0
10
260.75
20
-103.5
11
243.25
21
-103.5
0
LINE
8
0
10
243.25
20
-103.5
11
243.25
21
-120
0
LINE
8
0
10
225.25
20
-154
11
242.75
21
-154
0
LINE
8
0
10
242.75
20
-154
11
242.75
21
-137.5
0
LINE
8
0
10
242.75
20
-137.5
11
225.25
21
-137.5
0
LINE
8
0
10
225.25
20
-137.5
11
225.25
21
-154
0
LINE
8
0
10
225.25
20
-137
11
242.75
21
-137
0
LINE
8
0
10
242.75
20
-137
11
242.75
21
-120.5
0
LINE
8
0
10
242.75
20
-120.5
11
225.25
21
-120.5
0
LINE
8
0
10
225.25
20
-120.5
11
225.25
21
-137
0
LINE
8
0
10
225.25
20
-120
11
242.75
21
-120
0
LINE
8
0
10
242.75
20
-120
11
242.75
21
-103.5
0
LINE
8
0
10
242.75
20
-103.5
11
225.25
21
-103.5
0
LINE
8
0
10
225.25
20
-103.5
11
225.25
21
-120
0
LINE
8
0
10
250
20
-175.25
11
267.5
21
-175.25
0
LINE
8
0
10
267.5
20
-175.25
11
267.5
21
-158.75
0
LINE
8
0
10
267.5
20
-158.75
11
250
21
-158.75
0
LINE
8
0
10
250
20
-158.75
11
250
21
-175.25
0
LINE
8
0
10
227.5
20
-175.25
11
245
21
-175.25
0
LINE
8
0
10
245
20
-175.25
11
245
21
-158.75
0
LINE
8
0
10
245
20
-158.75
11
227.5
21
-158.75
0
LINE
8
0
10
227.5
20
-158.75
11
227.5
21
-175.25
0
LINE
8
0
10
209.5
20
-188
11
227
21
-188
0
LINE
8
0
10
227
20
-188
11
227
21
-171.5
0
LINE
8
0
10
227
20
-171.5
11
209.5
21
-171.5
0
LINE
8
0
10
209.5
20
-171.5
11
209.5
21
-188
0
LINE
8
0
10
83
20
-157
11
97
21
-157
0
LINE
8
0
10
97
20
-157
11
97
21
-143
0
LINE
8
0
10
97
20
-143
11
83
21
-143
0
LINE
8
0
10
83
20
-143
11
83
21
-157
0
LINE
8
0
10
83
20
-140
11
97
21
-140
0
LINE
8
0
10
97
20
-140
11
97
21
-126
0
LINE
8
0
10
97
20
-126
11
83
21
-126
0
LINE
8
0
10
83
20
-126
11
83
21
-140
0
LINE
8
0
10
83
20
-123
11
97
21
-123
0
LINE
8
0
10
97
20
-123
11
97
21
-109
0
LINE
8
0
10
97
20
-109
11
83
21
-109
0
LINE
8
0
10
83
20
-109
11
83
21
-123
0
LINE
8
0
10
101
20
-157
11
115
21
-157
0
LINE
8
0
10
115
20
-157
11
115
21
-143
0
LINE
8
0
10
115
20
-143
11
101
21
-143
0
LINE
8
0
10
101
20
-143
11
101
21
-157
0
LINE
8
0
10
101
20
-140
11
115
21
-140
0
LINE
8
0
10
115
20
-140
11
115
21
-126
0
LINE
8
0
10
115
20
-126
11
101
21
-126
0
LINE
8
0
10
101
20
-126
11
101
21
-140
0
LINE
8
0
10
101
20
-123
11
115
21
-123
0
LINE
8
0
10
115
20
-123
11
115
21
-109
0
LINE
8
0
10
115
20
-109
11
101
21
-109
0
LINE
8
0
10
101
20
-109
11
101
21
-123
0
LINE
8
0
10
119
20
-152.75
11
133
21
-152.75
0
LINE
8
0
10
133
20
-152.75
11
133
21
-138.75
0
LINE
8
0
10
133
20
-138.75
11
119
21
-138.75
0
LINE
8
0
10
119
20
-138.75
11
119
21
-152.75
0
LINE
8
0
10
119
20
-135.75
11
133
21
-135.75
0
LINE
8
0
10
133
20
-135.75
11
133
21
-121.75
0
LINE
8
0
10
133
20
-121.75
11
119
21
-121.75
0
LINE
8
0
10
119
20
-121.75
11
119
21
-135.75
0
LINE
8
0
10
119
20
-118.75
11
133
21
-118.75
0
LINE
8
0
10
133
20
-118.75
11
133
21
-104.75
0
LINE
8
0
10
133
20
-104.75
11
119
21
-104.75
0
LINE
8
0
10
119
20
-104.75
11
119
21
-118.75
0
LINE
8
0
10
137
20
-148.5
11
151
21
-148.5
0
LINE
8
0
10
151
20
-148.5
11
151
21
-134.5
0
LINE
8
0
10
151
20
-134.5
11
137
21
-134.5
0
LINE
8
0
10
137
20
-134.5
11
137
21
-148.5
0
LINE
8
0
10
137
20
-131.5
11
151
21
-131.5
0
LINE
8
0
10
151
20
-131.5
11
151
21
-117.5
0
LINE
8
0
10
151
20
-117.5
11
137
21
-117.5
0
LINE
8
0
10
137
20
-117.5
11
137
21
-131.5
0
LINE
8
0
10
137
20
-114.5
11
151
21
-114.5
0
LINE
8
0
10
151
20
-114.5
11
151
21
-100.5
0
LINE
8
0
10
151
20
-100.5
11
137
21
-100.5
0
LINE
8
0
10
137
20
-100.5
11
137
21
-114.5
0
LINE
8
0
10
155
20
-152.75
11
169
21
-152.75
0
LINE
8
0
10
169
20
-152.75
11
169
21
-138.75
0
LINE
8
0
10
169
20
-138.75
11
155
21
-138.75
0
LINE
8
0
10
155
20
-138.75
11
155
21
-152.75
0
LINE
8
0
10
155
20
-135.75
11
169
21
-135.75
0
LINE
8
0
10
169
20
-135.75
11
169
21
-121.75
0
LINE
8
0
10
169
20
-121.75
11
155
21
-121.75
0
LINE
8
0
10
155
20
-121.75
11
155
21
-135.75
0
LINE
8
0
10
155
20
-118.75
11
169
21
-118.75
0
LINE
8
0
10
169
20
-118.75
11
169
21
-104.75
0
LINE
8
0
10
169
20
-104.75
11
155
21
-104.75
0
LINE
8
0
10
155
20
-104.75
11
155
21
-118.75
0
LINE
8
0
10
173
20
-152.75
11
187
21
-152.75
0
LINE
8
0
10
187
20
-152.75
11
187
21
-138.75
0
LINE
8
0
10
187
20
-138.75
11
173
21
-138.75
0
LINE
8
0
10
173
20
-138.75
11
173
21
-152.75
0
LINE
8
0
10
173
20
-135.75
11
187
21
-135.75
0
LINE
8
0
10
187
20
-135.75
11
187
21
-121.75
0
LINE
8
0
10
187
20
-121.75
11
173
21
-121.75
0
LINE
8
0
10
173
20
-121.75
11
173
21
-135.75
0
LINE
8
0
10
173
20
-118.75
11
187
21
-118.75
0
LINE
8
0
10
187
20
-118.75
11
187
21
-104.75
0
LINE
8
0
10
187
20
-104.75
11
173
21
-104.75
0
LINE
8
0
10
173
20
-104.75
11
173
21
-118.75
0
LINE
8
0
10
148.25
20
-174
11
162.25
21
-174
0
LINE
8
0
10
162.25
20
-174
11
162.25
21
-160
0
LINE
8
0
10
162.25
20
-160
11
148.25
21
-160
0
LINE
8
0
10
148.25
20
-160
11
148.25
21
-174
0
LINE
8
0
10
170.75
20
-174
11
184.75
21
-174
0
LINE
8
0
10
184.75
20
-174
11
184.75
21
-160
0
LINE
8
0
10
184.75
20
-160
11
170.75
21
-160
0
LINE
8
0
10
170.75
20
-160
11
170.75
21
-174
0
LINE
8
0
10
188.75
20
-186.75
11
202.75
21
-186.75
0
LINE
8
0
10
202.75
20
-186.75
11
202.75
21
-172.75
0
LINE
8
0
10
202.75
20
-172.75
11
188.75
21
-172.75
0
LINE
8
0
10
188.75
20
-172.75
11
188.75
21
-186.75
0
LINE
8
0
10
317
20
-157
11
331
21
-157
0
LINE
8
0
10
331
20
-157
11
331
21
-143
0
LINE
8
0
10
331
20
-143
11
317
21
-143
0
LINE
8
0
10
317
20
-143
11
317
21
-157
0
LINE
8
0
10
317
20
-140
11
331
21
-140
0
LINE
8
0
10
331
20
-140
11
331
21
-126
0
LINE
8
0
10
331
20
-126
11
317
21
-126
0
LINE
8
0
10
317
20
-126
11
317
21
-140
0
LINE
8
0
10
317
20
-123
11
331
21
-123
0
LINE
8
0
10
331
20
-123
11
331
21
-109
0
LINE
8
0
10
331
20
-109
11
317
21
-109
0
LINE
8
0
10
317
20
-109
11
317
21
-123
0
LINE
8
0
10
299
20
-157
11
313
21
-157
0
LINE
8
0
10
313
20
-157
11
313
21
-143
0
LINE
8
0
10
313
20
-143
11
299
21
-143
0
LINE
8
0
10
299
20
-143
11
299
21
-157
0
LINE
8
0
10
299
20
-140
11
313
21
-140
0
LINE
8
0
10
313
20
-140
11
313
21
-126
0
LINE
8
0
10
313
20
-126
11
299
21
-126
0
LINE
8
0
10
299
20
-126
11
299
21
-140
0
LINE
8
0
10
299
20
-123
11
313
21
-123
0
LINE
8
0
10
313
20
-123
11
313
21
-109
0
LINE
8
0
10
313
20
-109
11
299
21
-109
0
LINE
8
0
10
299
20
-109
11
299
21
-123
0
LINE
8
0
10
281
20
-152.75
11
295
21
-152.75
0
LINE
8
0
10
295
20
-152.75
11
295
21
-138.75
0
LINE
8
0
10
295
20
-138.75
11
281
21
-138.75
0
LINE
8
0
10
281
20
-138.75
11
281
21
-152.75
0
LINE
8
0
10
281
20
-135.75
11
295
21
-135.75
0
LINE
8
0
10
295
20
-135.75
11
295
21
-121.75
0
LINE
8
0
10
295
20
-121.75
11
281
21
-121.75
0
LINE
8
0
10
281
20
-121.75
11
281
21
-135.75
0
LINE
8
0
10
281
20
-118.75
11
295
21
-118.75
0
LINE
8
0
10
295
20
-118.75
11
295
21
-104.75
0
LINE
8
0
10
295
20
-104.75
11
281
21
-104.75
0
LINE
8
0
10
281
20
-104.75
11
281
21
-118.75
0
LINE
8
0
10
263
20
-148.5
11
277
21
-148.5
0
LINE
8
0
10
277
20
-148.5
11
277
21
-134.5
0
LINE
8
0
10
277
20
-134.5
11
263
21
-134.5
0
LINE
8
0
10
263
20
-134.5
11
263
21
-148.5
0
LINE
8
0
10
263
20
-131.5
11
277
21
-131.5
0
LINE
8
0
10
277
20
-131.5
11
277
21
-117.5
0
LINE
8
0
10
277
20
-117.5
11
263
21
-117.5
0
LINE
8
0
10
263
20
-117.5
11
263
21
-131.5
0
LINE
8
0
10
263
20
-114.5
11
277
21
-114.5
0
LINE
8
0
10
277
20
-114.5
11
277
21
-100.5
0
LINE
8
0
10
277
20
-100.5
11
263
21
-100.5
0
LINE
8
0
10
263
20
-100.5
11
263
21
-114.5
0
LINE
8
0
10
245
20
-152.75
11
259
21
-152.75
0
LINE
8
0
10
259
20
-152.75
11
259
21
-138.75
0
LINE
8
0
10
259
20
-138.75
11
245
21
-138.75
0
LINE
8
0
10
245
20
-138.75
11
245
21
-152.75
0
LINE
8
0
10
245
20
-135.75
11
259
21
-135.75
0
LINE
8
0
10
259
20
-135.75
11
259
21
-121.75
0
LINE
8
0
10
259
20
-121.75
11
245
21
-121.75
0
LINE
8
0
10
245
20
-121.75
11
245
21
-135.75
0
LINE
8
0
10
245
20
-118.75
11
259
21
-118.75
0
LINE
8
0
10
259
20
-118.75
11
259
21
-104.75
0
LINE
8
0
10
259
20
-104.75
11
245
21
-104.75
0
LINE
8
0
10
245
20
-104.75
11
245
21
-118.75
0
LINE
8
0
10
227
20
-152.75
11
241
21
-152.75
0
LINE
8
0
10
241
20
-152.75
11
241
21
-138.75
0
LINE
8
0
10
241
20
-138.75
11
227
21
-138.75
0
LINE
8
0
10
227
20
-138.75
11
227
21
-152.75
0
LINE
8
0
10
227
20
-135.75
11
241
21
-135.75
0
LINE
8
0
10
241
20
-135.75
11
241
21
-121.75
0
LINE
8
0
10
241
20
-121.75
11
227
21
-121.75
0
LINE
8
0
10
227
20
-121.75
11
227
21
-135.75
0
LINE
8
0
10
227
20
-118.75
11
241
21
-118.75
0
LINE
8
0
10
241
20
-118.75
11
241
21
-104.75
0
LINE
8
0
10
241
20
-104.75
11
227
21
-104.75
0
LINE
8
0
10
227
20
-104.75
11
227
21
-118.75
0
LINE
8
0
10
251.75
20
-174
11
265.75
21
-174
0
LINE
8
0
10
265.75
20
-174
11
265.75
21
-160
0
LINE
8
0
10
265.75
20
-160
11
251.75
21
-160
0
LINE
8
0
10
251.75
20
-160
11
251.75
21
-174
0
LINE
8
0
10
229.25
20
-174
11
243.25
21
-174
0
LINE
8
0
10
243.25
20
-174
11
243.25
21
-160
0
LINE
8
0
10
243.25
20
-160
11
229.25
21
-160
0
LINE
8
0
10
229.25
20
-160
11
229.25
21
-174
0
LINE
8
0
10
211.25
20
-186.75
11
225.25
21
-186.75
0
LINE
8
0
10
225.25
20
-186.75
11
225.25
21
-172.75
0
LINE
8
0
10
225.25
20
-172.75
11
211.25
21
-172.75
0
LINE
8
0
10
211.25
20
-172.75
11
211.25
21
-186.75
0
LINE
8
0
10
198.11
20
-138.074
11
215.89
21
-138.074
0
LINE
8
0
10
215.89
20
-138.074
11
215.89
21
-104.994
0
LINE
8
0
10
215.89
20
-104.994
11
198.11
21
-104.994
0
LINE
8
0
10
198.11
20
-104.994
11
198.11
21
-138.074
0
LINE
8
0
10
190.25
20
-154
11
223.75
21
-154
0
LINE
8
0
10
224.75
20
-153
11
224.75
21
-104.5
0
LINE
8
0
10
190.25
20
-103.5
11
223.75
21
-103.5
0
LINE
8
0
10
189.25
20
-104.5
11
189.25
21
-153
0
ARC
8
0
10
223.75
20
-153
40
1
50
270
51
0
0
ARC
8
0
10
223.75
20
-104.5
40
1
50
0
51
90
0
ARC
8
0
10
190.25
20
-104.5
40
1
50
90
51
180
0
ARC
8
0
10
190.25
20
-153
40
1
50
180
51
270
0
CIRCLE
8
0
10
193.75
20
-145.75
40
1
0
CIRCLE
8
0
10
193.75
20
-111.75
40
1
0
CIRCLE
8
0
10
220.25
20
-145.75
40
1
0
CIRCLE
8
0
10
220.25
20
-111.75
40
1
0
CIRCLE
8
0
10
87.375
20
-186.125
40
1
0
CIRCLE
8
0
10
87.375
20
-101.125
40
1
0
CIRCLE
8
0
10
326.625
20
-186.125
40
1
0
CIRCLE
8
0
10
326.625
20
-101.125
40
1
0
LINE
8
0
10
217.3
20
-135.55
11
223.2
21
-135.55
0
LINE
8
0
10
223.2
20
-135.55
11
223.2
21
-127.95
0
LINE
8
0
10
223.2
20
-127.95
11
217.3
21
-127.95
0
LINE
8
0
10
217.3
20
-127.95
11
217.3
21
-135.55
0
LINE
8
0
10
216.9
20
-106.1
11
223.6
21
-106.1
0
LINE
8
0
10
223.6
20
-106.1
11
223.6
21
-103.5
0
LINE
8
0
10
216.9
20
-103.5
11
216.9
21
-106.1
0
LINE
8
0
10
191.4
20
-107
11
196.1
21
-107
0
LINE
8
0
10
196.1
20
-107
11
196.1
21
-103.5
0
LINE
8
0
10
191.4
20
-103.5
11
191.4
21
-107
0
LINE
8
0
10
88.075
20
-155.525
11
91.925
21
-155.525
0
LINE
8
0
10
91.925
20
-155.525
11
91.925
21
-153.875
0
LINE
8
0
10
91.925
20
-153.875
11
88.075
21
-153.875
0
LINE
8
0
10
88.075
20
-153.875
11
88.075
21
-155.525
0
LINE
8
0
10
88.075
20
-138.525
11
91.925
21
-138.525
0
LINE
8
0
10
91.925
20
-138.525
11
91.925
21
-136.875
0
LINE
8
0
10
91.925
20
-136.875
11
88.075
21
-136.875
0
LINE
8
0
10
88.075
20
-136.875
11
88.075
21
-138.525
0
LINE
8
0
10
88.075
20
-121.525
11
91.925
21
-121.525
0
LINE
8
0
10
91.925
20
-121.525
11
91.925
21
-119.875
0
LINE
8
0
10
91.925
20
-119.875
11
88.075
21
-119.875
0
LINE
8
0
10
88.075
20
-119.875
11
88.075
21
-121.525
0
LINE
8
0
10
106.075
20
-155.525
11
109.925
21
-155.525
0
LINE
8
0
10
109.925
20
-155.525
11
109.925
21
-153.875
0
LINE
8
0
10
109.925
20
-153.875
11
106.075
21
-153.875
0
LINE
8
0
10
106.075
20
-153.875
11
106.075
21
-155.525
0
LINE
8
0
10
106.075
20
-138.525
11
109.925
21
-138.525
0
LINE
8
0
10
109.925
20
-138.525
11
109.925
21
-136.875
0
LINE
8
0
10
109.925
20
-136.875
11
106.075
21
-136.875
0
LINE
8
0
10
106.075
20
-136.875
11
106.075
21
-138.525
0
LINE
8
0
10
106.075
20
-121.525
11
109.925
21
-121.525
0
LINE
8
0
10
109.925
20
-121.525
11
109.925
21
-119.875
0
LINE
8
0
10
109.925
20
-119.875
11
106.075
21
-119.875
0
LINE
8
0
10
106.075
20
-119.875
11
106.075
21
-121.525
0
LINE
8
0
10
124.075
20
-151.275
11
127.925
21
-151.275
0
LINE
8
0
10
127.925
20
-151.275
11
127.925
21
-149.625
0
LINE
8
0
10
127.925
20
-149.625
11
124.075
21
-149.625
0
LINE
8
0
10
124.075
20
-149.625
11
124.075
21
-151.275
0
LINE
8
0
10
124.075
20
-134.275
11
127.925
21
-134.275
0
LINE
8
0
10
127.925
20
-134.275
11
127.925
21
-132.625
0
LINE
8
0
10
127.925
20
-132.625
11
124.075
21
-132.625
0
LINE
8
0
10
124.075
20
-132.625
11
124.075
21
-134.275
0
LINE
8
0
10
124.075
20
-117.275
11
127.925
21
-117.275
0
LINE
8
0
10
127.925
20
-117.275
11
127.925
21
-115.625
0
LINE
8
0
10
127.925
20
-115.625
11
124.075
21
-115.625
0
LINE
8
0
10
124.075
20
-115.625
11
124.075
21
-117.275
0
LINE
8
0
10
142.075
20
-147.025
11
145.925
21
-147.025
0
LINE
8
0
10
145.925
20
-147.025
11
145.925
21
-145.375
0
LINE
8
0
10
145.925
20
-145.375
11
142.075
21
-145.375
0
LINE
8
0
10
142.075
20
-145.375
11
142.075
21
-147.025
0
LINE
8
0
10
142.075
20
-130.025
11
145.925
21
-130.025
0
LINE
8
0
10
145.925
20
-130.025
11
145.925
21
-128.375
0
LINE
8
0
10
145.925
20
-128.375
11
142.075
21
-128.375
0
LINE
8
0
10
142.075
20
-128.375
11
142.075
21
-130.025
0
LINE
8
0
10
142.075
20
-113.025
11
145.925
21
-113.025
0
LINE
8
0
10
145.925
20
-113.025
11
145.925
21
-111.375
0
LINE
8
0
10
145.925
20
-111.375
11
142.075
21
-111.375
0
LINE
8
0
10
142.075
20
-111.375
11
142.075
21
-113.025
0
LINE
8
0
10
160.075
20
-151.275
11
163.925
21
-151.275
0
LINE
8
0
10
163.925
20
-151.275
11
163.925
21
-149.625
0
LINE
8
0
10
163.925
20
-149.625
11
160.075
21
-149.625
0
LINE
8
0
10
160.075
20
-149.625
11
160.075
21
-151.275
0
LINE
8
0
10
160.075
20
-134.275
11
163.925
21
-134.275
0
LINE
8
0
10
163.925
20
-134.275
11
163.925
21
-132.625
0
LINE
8
0
10
163.925
20
-132.625
11
160.075
21
-132.625
0
LINE
8
0
10
160.075
20
-132.625
11
160.075
21
-134.275
0
LINE
8
0
10
160.075
20
-117.275
11
163.925
21
-117.275
0
LINE
8
0
10
163.925
20
-117.275
11
163.925
21
-115.625
0
LINE
8
0
10
163.925
20
-115.625
11
160.075
21
-115.625
0
LINE
8
0
10
160.075
20
-115.625
11
160.075
21
-117.275
0
LINE
8
0
10
178.075
20
-151.275
11
181.925
21
-151.275
0
LINE
8
0
10
181.925
20
-151.275
11
181.925
21
-149.625
0
LINE
8
0
10
181.925
20
-149.625
11
178.075
21
-149.625
0
LINE
8
0
10
178.075
20
-149.625
11
178.075
21
-151.275
0
LINE
8
0
10
178.075
20
-134.275
11
181.925
21
-134.275
0
LINE
8
0
10
181.925
20
-134.275
11
181.925
21
-132.625
0
LINE
8
0
10
181.925
20
-132.625
11
178.075
21
-132.625
0
LINE
8
0
10
178.075
20
-132.625
11
178.075
21
-134.275
0
LINE
8
0
10
178.075
20
-117.275
11
181.925
21
-117.275
0
LINE
8
0
10
181.925
20
-117.275
11
181.925
21
-115.625
0
LINE
8
0
10
181.925
20
-115.625
11
178.075
21
-115.625
0
LINE
8
0
10
178.075
20
-115.625
11
178.075
21
-117.275
0
LINE
8
0
10
153.325
20
-172.525
11
157.175
21
-172.525
0
LINE
8
0
10
157.175
20
-172.525
11
157.175
21
-170.875
0
LINE
8
0
10
157.175
20
-170.875
11
153.325
21
-170.875
0
LINE
8
0
10
153.325
20
-170.875
11
153.325
21
-172.525
0
LINE
8
0
10
175.825
20
-172.525
11
179.675
21
-172.525
0
LINE
8
0
10
179.675
20
-172.525
11
179.675
21
-170.875
0
LINE
8
0
10
179.675
20
-170.875
11
175.825
21
-170.875
0
LINE
8
0
10
175.825
20
-170.875
11
175.825
21
-172.525
0
LINE
8
0
10
193.825
20
-185.275
11
197.675
21
-185.275
0
LINE
8
0
10
197.675
20
-185.275
11
197.675
21
-183.625
0
LINE
8
0
10
197.675
20
-183.625
11
193.825
21
-183.625
0
LINE
8
0
10
193.825
20
-183.625
11
193.825
21
-185.275
0
LINE
8
0
10
322.075
20
-155.525
11
325.925
21
-155.525
0
LINE
8
0
10
325.925
20
-155.525
11
325.925
21
-153.875
0
LINE
8
0
10
325.925
20
-153.875
11
322.075
21
-153.875
0
LINE
8
0
10
322.075
20
-153.875
11
322.075
21
-155.525
0
LINE
8
0
10
322.075
20
-138.525
11
325.925
21
-138.525
0
LINE
8
0
10
325.925
20
-138.525
11
325.925
21
-136.875
0
LINE
8
0
10
325.925
20
-136.875
11
322.075
21
-136.875
0
LINE
8
0
10
322.075
20
-136.875
11
322.075
21
-138.525
0
LINE
8
0
10
322.075
20
-121.525
11
325.925
21
-121.525
0
LINE
8
0
10
325.925
20
-121.525
11
325.925
21
-119.875
0
LINE
8
0
10
325.925
20
-119.875
11
322.075
21
-119.875
0
LINE
8
0
10
322.075
20
-119.875
11
322.075
21
-121.525
0
LINE
8
0
10
304.075
20
-155.525
11
307.925
21
-155.525
0
LINE
8
0
10
307.925
20
-155.525
11
307.925
21
-153.875
0
LINE
8
0
10
307.925
20
-153.875
11
304.075
21
-153.875
0
LINE
8
0
10
304.075
20
-153.875
11
304.075
21
-155.525
0
LINE
8
0
10
304.075
20
-138.525
11
307.925
21
-138.525
0
LINE
8
0
10
307.925
20
-138.525
11
307.925
21
-136.875
0
LINE
8
0
10
307.925
20
-136.875
11
304.075
21
-136.875
0
LINE
8
0
10
304.075
20
-136.875
11
304.075
21
-138.525
0
LINE
8
0
10
304.075
20
-121.525
11
307.925
21
-121.525
0
LINE
8
0
10
307.925
20
-121.525
11
307.925
21
-119.875
0
LINE
8
0
10
307.925
20
-119.875
11
304.075
21
-119.875
0
LINE
8
0
10
304.075
20
-119.875
11
304.075
21
-121.525
0
LINE
8
0
10
286.075
20
-151.275
11
289.925
21
-151.275
0
LINE
8
0
10
289.925
20
-151.275
11
289.925
21
-149.625
0
LINE
8
0
10
289.925
20
-149.625
11
286.075
21
-149.625
0
LINE
8
0
10
286.075
20
-149.625
11
286.075
21
-151.275
0
LINE
8
0
10
286.075
20
-134.275
11
289.925
21
-134.275
0
LINE
8
0
10
289.925
20
-134.275
11
289.925
21
-132.625
0
LINE
8
0
10
289.925
20
-132.625
11
286.075
21
-132.625
0
LINE
8
0
10
286.075
20
-132.625
11
286.075
21
-134.275
0
LINE
8
0
10
286.075
20
-117.275
11
289.925
21
-117.275
0
LINE
8
0
10
289.925
20
-117.275
11
289.925
21
-115.625
0
LINE
8
0
10
289.925
20
-115.625
11
286.075
21
-115.625
0
LINE
8
0
10
286.075
20
-115.625
11
286.075
21
-117.275
0
LINE
8
0
10
268.075
20
-147.025
11
271.925
21
-147.025
0
LINE
8
0
10
271.925
20
-147.025
11
271.925
21
-145.375
0
LINE
8
0
10
271.925
20
-145.375
11
268.075
21
-145.375
0
LINE
8
0
10
268.075
20
-145.375
11
268.075
21
-147.025
0
LINE
8
0
10
268.075
20
-130.025
11
271.925
21
-130.025
0
LINE
8
0
10
271.925
20
-130.025
11
271.925
21
-128.375
0
LINE
8
0
10
271.925
20
-128.375
11
268.075
21
-128.375
0
LINE
8
0
10
268.075
20
-128.375
11
268.075
21
-130.025
0
LINE
8
0
10
268.075
20
-113.025
11
271.925
21
-113.025
0
LINE
8
0
10
271.925
20
-113.025
11
271.925
21
-111.375
0
LINE
8
0
10
271.925
20
-111.375
11
268.075
21
-111.375
0
LINE
8
0
10
268.075
20
-111.375
11
268.075
21
-113.025
0
LINE
8
0
10
250.075
20
-151.275
11
253.925
21
-151.275
0
LINE
8
0
10
253.925
20
-151.275
11
253.925
21
-149.625
0
LINE
8
0
10
253.925
20
-149.625
11
250.075
21
-149.625
0
LINE
8
0
10
250.075
20
-149.625
11
250.075
21
-151.275
0
LINE
8
0
10
250.075
20
-134.275
11
253.925
21
-134.275
0
LINE
8
0
10
253.925
20
-134.275
11
253.925
21
-132.625
0
LINE
8
0
10
253.925
20
-132.625
11
250.075
21
-132.625
0
LINE
8
0
10
250.075
20
-132.625
11
250.075
21
-134.275
0
LINE
8
0
10
250.075
20
-117.275
11
253.925
21
-117.275
0
LINE
8
0
10
253.925
20
-117.275
11
253.925
21
-115.625
0
LINE
8
0
10
253.925
20
-115.625
11
250.075
21
-115.625
0
LINE
8
0
10
250.075
20
-115.625
11
250.075
21
-117.275
0
LINE
8
0
10
232.075
20
-151.275
11
235.925
21
-151.275
0
LINE
8
0
10
235.925
20
-151.275
11
235.925
21
-149.625
0
LINE
8
0
10
235.925
20
-149.625
11
232.075
21
-149.625
0
LINE
8
0
10
232.075
20
-149.625
11
232.075
21
-151.275
0
LINE
8
0
10
232.075
20
-134.275
11
235.925
21
-134.275
0
LINE
8
0
10
235.925
20
-134.275
11
235.925
21
-132.625
0
LINE
8
0
10
235.925
20
-132.625
11
232.075
21
-132.625
0
LINE
8
0
10
232.075
20
-132.625
11
232.075
21
-134.275
0
LINE
8
0
10
232.075
20
-117.275
11
235.925
21
-117.275
0
LINE
8
0
10
235.925
20
-117.275
11
235.925
21
-115.625
0
LINE
8
0
10
235.925
20
-115.625
11
232.075
21
-115.625
0
LINE
8
0
10
232.075
20
-115.625
11
232.075
21
-117.275
0
LINE
8
0
10
256.825
20
-172.525
11
260.675
21
-172.525
0
LINE
8
0
10
260.675
20
-172.525
11
260.675
21
-170.875
0
LINE
8
0
10
260.675
20
-170.875
11
256.825
21
-170.875
0
LINE
8
0
10
256.825
20
-170.875
11
256.825
21
-172.525
0
LINE
8
0
10
234.325
20
-172.525
11
238.175
21
-172.525
0
LINE
8
0
10
238.175
20
-172.525
11
238.175
21
-170.875
0
LINE
8
0
10
238.175
20
-170.875
11
234.325
21
-170.875
0
LINE
8
0
10
234.325
20
-170.875
11
234.325
21
-172.525
0
LINE
8
0
10
216.325
20
-185.275
11
220.175
21
-185.275
0
LINE
8
0
10
220.175
20
-185.275
11
220.175
21
-183.625
0
LINE
8
0
10
220.175
20
-183.625
11
216.325
21
-183.625
0
LINE
8
0
10
216.325
20
-183.625
11
216.325
21
-185.275
0
CIRCLE
8
0
10
90
20
-150
40
1.7
0
CIRCLE
8
0
10
90
20
-133
40
1.7
0
CIRCLE
8
0
10
90
20
-116
40
1.7
0
CIRCLE
8
0
10
108
20
-150
40
1.7
0
CIRCLE
8
0
10
108
20
-133
40
1.7
0
CIRCLE
8
0
10
108
20
-116
40
1.7
0
CIRCLE
8
0
10
126
20
-145.75
40
1.7
0
CIRCLE
8
0
10
126
20
-128.75
40
1.7
0
CIRCLE
8
0
10
126
20
-111.75
40
1.7
0
CIRCLE
8
0
10
144
20
-141.5
40
1.7
0
CIRCLE
8
0
10
144
20
-124.5
40
1.7
0
CIRCLE
8
0
10
144
20
-107.5
40
1.7
0
CIRCLE
8
0
10
162
20
-145.75
40
1.7
0
CIRCLE
8
0
10
162
20
-128.75
40
1.7
0
CIRCLE
8
0
10
162
20
-111.75
40
1.7
0
CIRCLE
8
0
10
180
20
-145.75
40
1.7
0
CIRCLE
8
0
10
180
20
-128.75
40
1.7
0
CIRCLE
8
0
10
180
20
-111.75
40
1.7
0
CIRCLE
8
0
10
155.25
20
-167
40
1.7
0
CIRCLE
8
0
10
177.75
20
-167
40
1.7
0
CIRCLE
8
0
10
195.75
20
-179.75
40
1.7
0
CIRCLE
8
0
10
324
20
-150
40
1.7
0
CIRCLE
8
0
10
324
20
-133
40
1.7
0
CIRCLE
8
0
10
324
20
-116
40
1.7
0
CIRCLE
8
0
10
306
20
-150
40
1.7
0
CIRCLE
8
0
10
306
20
-133
40
1.7
0
CIRCLE
8
0
10
306
20
-116
40
1.7
0
CIRCLE
8
0
10
288
20
-145.75
40
1.7
0
CIRCLE
8
0
10
288
20
-128.75
40
1.7
0
CIRCLE
8
0
10
288
20
-111.75
40
1.7
0
CIRCLE
8
0
10
270
20
-141.5
40
1.7
0
CIRCLE
8
0
10
270
20
-124.5
40
1.7
0
CIRCLE
8
0
10
270
20
-107.5
40
1.7
0
CIRCLE
8
0
10
252
20
-145.75
40
1.7
0
CIRCLE
8
0
10
252
20
-128.75
40
1.7
0
CIRCLE
8
0
10
252
20
-111.75
40
1.7
0
CIRCLE
8
0
10
234
20
-145.75
40
1.7
0
CIRCLE
8
0
10
234
20
-128.75
40
1.7
0
CIRCLE
8
0
10
234
20
-111.75
40
1.7
0
CIRCLE
8
0
10
258.75
20
-167
40
1.7
0
CIRCLE
8
0
10
236.25
20
-167
40
1.7
0
CIRCLE
8
0
10
218.25
20
-179.75
40
1.7
0
CIRCLE
8
0
10
95.5
20
-150
40
0.85
0
CIRCLE
8
0
10
95.5
20
-133
40
0.85
0
CIRCLE
8
0
10
95.5
20
-116
40
0.85
0
CIRCLE
8
0
10
113.5
20
-150
40
0.85
0
CIRCLE
8
0
10
113.5
20
-133
40
0.85
0
CIRCLE
8
0
10
113.5
20
-116
40
0.85
0
CIRCLE
8
0
10
131.5
20
-145.75
40
0.85
0
CIRCLE
8
0
10
131.5
20
-128.75
40
0.85
0
CIRCLE
8
0
10
131.5
20
-111.75
40
0.85
0
CIRCLE
8
0
10
149.5
20
-141.5
40
0.85
0
CIRCLE
8
0
10
149.5
20
-124.5
40
0.85
0
CIRCLE
8
0
10
149.5
20
-107.5
40
0.85
0
CIRCLE
8
0
10
167.5
20
-145.75
40
0.85
0
CIRCLE
8
0
10
167.5
20
-128.75
40
0.85
0
CIRCLE
8
0
10
167.5
20
-111.75
40
0.85
0
CIRCLE
8
0
10
185.5
20
-145.75
40
0.85
0
CIRCLE
8
0
10
185.5
20
-128.75
40
0.85
0
CIRCLE
8
0
10
185.5
20
-111.75
40
0.85
0
CIRCLE
8
0
10
160.75
20
-167
40
0.85
0
CIRCLE
8
0
10
183.25
20
-167
40
0.85
0
CIRCLE
8
0
10
201.25
20
-179.75
40
0.85
0
CIRCLE
8
0
10
318.5
20
-150
40
0.85
0
CIRCLE
8
0
10
318.5
20
-133
40
0.85
0
CIRCLE
8
0
10
318.5
20
-116
40
0.85
0
CIRCLE
8
0
10
300.5
20
-150
40
0.85
0
CIRCLE
8
0
10
300.5
20
-133
40
0.85
0
CIRCLE
8
0
10
300.5
20
-116
40
0.85
0
CIRCLE
8
0
10
282.5
20
-145.75
40
0.85
0
CIRCLE
8
0
10
282.5
20
-128.75
40
0.85
0
CIRCLE
8
0
10
282.5
20
-111.75
40
0.85
0
CIRCLE
8
0
10
264.5
20
-141.5
40
0.85
0
CIRCLE
8
0
10
264.5
20
-124.5
40
0.85
0
CIRCLE
8
0
10
264.5
20
-107.5
40
0.85
0
CIRCLE
8
0
10
246.5
20
-145.75
40
0.85
0
CIRCLE
8
0
10
246.5
20
-128.75
40
0.85
0
CIRCLE
8
0
10
246.5
20
-111.75
40
0.85
0
CIRCLE
8
0
10
228.5
20
-145.75
40
0.85
0
CIRCLE
8
0
10
228.5
20
-128.75
40
0.85
0
CIRCLE
8
0
10
228.5
20
-111.75
40
0.85
0
CIRCLE
8
0
10
253.25
20
-167
40
0.85
0
CIRCLE
8
0
10
230.75
20
-167
40
0.85
0
CIRCLE
8
0
10
212.75
20
-179.75
40
0.85
0
CIRCLE
8
0
10
84.5
20
-150
40
0.85
0
CIRCLE
8
0
10
84.5
20
-133
40
0.85
0
CIRCLE
8
0
10
84.5
20
-116
40
0.85
0
CIRCLE
8
0
10
102.5
20
-150
40
0.85
0
CIRCLE
8
0
10
102.5
20
-133
40
0.85
0
CIRCLE
8
0
10
102.5
20
-116
40
0.85
0
CIRCLE
8
0
10
120.5
20
-145.75
40
0.85
0
CIRCLE
8
0
10
120.5
20
-128.75
40
0.85
0
CIRCLE
8
0
10
120.5
20
-111.75
40
0.85
0
CIRCLE
8
0
10
138.5
20
-141.5
40
0.85
0
CIRCLE
8
0
10
138.5
20
-124.5
40
0.85
0
CIRCLE
8
0
10
138.5
20
-107.5
40
0.85
0
CIRCLE
8
0
10
156.5
20
-145.75
40
0.85
0
CIRCLE
8
0
10
156.5
20
-128.75
40
0.85
0
CIRCLE
8
0
10
156.5
20
-111.75
40
0.85
0
CIRCLE
8
0
10
174.5
20
-145.75
40
0.85
0
CIRCLE
8
0
10
174.5
20
-128.75
40
0.85
0
CIRCLE
8
0
10
174.5
20
-111.75
40
0.85
0
CIRCLE
8
0
10
149.75
20
-167
40
0.85
0
CIRCLE
8
0
10
172.25
20
-167
40
0.85
0
CIRCLE
8
0
10
190.25
20
-179.75
40
0.85
0
CIRCLE
8
0
10
329.5
20
-150
40
0.85
0
CIRCLE
8
0
10
329.5
20
-133
40
0.85
0
CIRCLE
8
0
10
329.5
20
-116
40
0.85
0
CIRCLE
8
0
10
311.5
20
-150
40
0.85
0
CIRCLE
8
0
10
311.5
20
-133
40
0.85
0
CIRCLE
8
0
10
311.5
20
-116
40
0.85
0
CIRCLE
8
0
10
293.5
20
-145.75
40
0.85
0
CIRCLE
8
0
10
293.5
20
-128.75
40
0.85
0
CIRCLE
8
0
10
293.5
20
-111.75
40
0.85
0
CIRCLE
8
0
10
275.5
20
-141.5
40
0.85
0
CIRCLE
8
0
10
275.5
20
-124.5
40
0.85
0
CIRCLE
8
0
10
275.5
20
-107.5
40
0.85
0
CIRCLE
8
0
10
257.5
20
-145.75
40
0.85
0
CIRCLE
8
0
10
257.5
20
-128.75
40
0.85
0
CIRCLE
8
0
10
257.5
20
-111.75
40
0.85
0
CIRCLE
8
0
10
239.5
20
-145.75
40
0.85
0
CIRCLE
8
0
10
239.5
20
-128.75
40
0.85
0
CIRCLE
8
0
10
239.5
20
-111.75
40
0.85
0
CIRCLE
8
0
10
264.25
20
-167
40
0.85
0
CIRCLE
8
0
10
241.75
20
-167
40
0.85
0
CIRCLE
8
0
10
223.75
20
-179.75
40
0.85
0
CIRCLE
8
0
10
90
20
-144.1
40
0.6
0
CIRCLE
8
0
10
90
20
-127.1
40
0.6
0
CIRCLE
8
0
10
90
20
-110.1
40
0.6
0
CIRCLE
8
0
10
108
20
-144.1
40
0.6
0
CIRCLE
8
0
10
108
20
-127.1
40
0.6
0
CIRCLE
8
0
10
108
20
-110.1
40
0.6
0
CIRCLE
8
0
10
126
20
-139.85
40
0.6
0
CIRCLE
8
0
10
126
20
-122.85
40
0.6
0
CIRCLE
8
0
10
126
20
-105.85
40
0.6
0
CIRCLE
8
0
10
144
20
-135.6
40
0.6
0
CIRCLE
8
0
10
144
20
-118.6
40
0.6
0
CIRCLE
8
0
10
144
20
-101.6
40
0.6
0
CIRCLE
8
0
10
162
20
-139.85
40
0.6
0
CIRCLE
8
0
10
162
20
-122.85
40
0.6
0
CIRCLE
8
0
10
162
20
-105.85
40
0.6
0
CIRCLE
8
0
10
180
20
-139.85
40
0.6
0
CIRCLE
8
0
10
180
20
-122.85
40
0.6
0
CIRCLE
8
0
10
180
20
-105.85
40
0.6
0
CIRCLE
8
0
10
155.25
20
-161.1
40
0.6
0
CIRCLE
8
0
10
177.75
20
-161.1
40
0.6
0
CIRCLE
8
0
10
195.75
20
-173.85
40
0.6
0
CIRCLE
8
0
10
324
20
-144.1
40
0.6
0
CIRCLE
8
0
10
324
20
-127.1
40
0.6
0
CIRCLE
8
0
10
324
20
-110.1
40
0.6
0
CIRCLE
8
0
10
306
20
-144.1
40
0.6
0
CIRCLE
8
0
10
306
20
-127.1
40
0.6
0
CIRCLE
8
0
10
306
20
-110.1
40
0.6
0
CIRCLE
8
0
10
288
20
-139.85
40
0.6
0
CIRCLE
8
0
10
288
20
-122.85
40
0.6
0
CIRCLE
8
0
10
288
20
-105.85
40
0.6
0
CIRCLE
8
0
10
270
20
-135.6
40
0.6
0
CIRCLE
8
0
10
270
20
-118.6
40
0.6
0
CIRCLE
8
0
10
270
20
-101.6
40
0.6
0
CIRCLE
8
0
10
252
20
-139.85
40
0.6
0
CIRCLE
8
0
10
252
20
-122.85
40
0.6
0
CIRCLE
8
0
10
252
20
-105.85
40
0.6
0
CIRCLE
8
0
10
234
20
-139.85
40
0.6
0
CIRCLE
8
0
10
234
20
-122.85
40
0.6
0
CIRCLE
8
0
10
234
20
-105.85
40
0.6
0
CIRCLE
8
0
10
258.75
20
-161.1
40
0.6
0
CIRCLE
8
0
10
236.25
20
-161.1
40
0.6
0
CIRCLE
8
0
10
218.25
20
-173.85
40
0.6
0
CIRCLE
8
0
10
95
20
-146.2
40
0.6
0
CIRCLE
8
0
10
95
20
-129.2
40
0.6
0
CIRCLE
8
0
10
95
20
-112.2
40
0.6
0
CIRCLE
8
0
10
113
20
-146.2
40
0.6
0
CIRCLE
8
0
10
113
20
-129.2
40
0.6
0
CIRCLE
8
0
10
113
20
-112.2
40
0.6
0
CIRCLE
8
0
10
131
20
-141.95
40
0.6
0
CIRCLE
8
0
10
131
20
-124.95
40
0.6
0
CIRCLE
8
0
10
131
20
-107.95
40
0.6
0
CIRCLE
8
0
10
149
20
-137.7
40
0.6
0
CIRCLE
8
0
10
149
20
-120.7
40
0.6
0
CIRCLE
8
0
10
149
20
-103.7
40
0.6
0
CIRCLE
8
0
10
167
20
-141.95
40
0.6
0
CIRCLE
8
0
10
167
20
-124.95
40
0.6
0
CIRCLE
8
0
10
167
20
-107.95
40
0.6
0
CIRCLE
8
0
10
185
20
-141.95
40
0.6
0
CIRCLE
8
0
10
185
20
-124.95
40
0.6
0
CIRCLE
8
0
10
185
20
-107.95
40
0.6
0
CIRCLE
8
0
10
160.25
20
-163.2
40
0.6
0
CIRCLE
8
0
10
182.75
20
-163.2
40
0.6
0
CIRCLE
8
0
10
200.75
20
-175.95
40
0.6
0
CIRCLE
8
0
10
329
20
-146.2
40
0.6
0
CIRCLE
8
0
10
329
20
-129.2
40
0.6
0
CIRCLE
8
0
10
329
20
-112.2
40
0.6
0
CIRCLE
8
0
10
311
20
-146.2
40
0.6
0
CIRCLE
8
0
10
311
20
-129.2
40
0.6
0
CIRCLE
8
0
10
311
20
-112.2
40
0.6
0
CIRCLE
8
0
10
293
20
-141.95
40
0.6
0
CIRCLE
8
0
10
293
20
-124.95
40
0.6
0
CIRCLE
8
0
10
293
20
-107.95
40
0.6
0
CIRCLE
8
0
10
275
20
-137.7
40
0.6
0
CIRCLE
8
0
10
275
20
-120.7
40
0.6
0
CIRCLE
8
0
10
275
20
-103.7
40
0.6
0
CIRCLE
8
0
10
257
20
-141.95
40
0.6
0
CIRCLE
8
0
10
257
20
-124.95
40
0.6
0
CIRCLE
8
0
10
257
20
-107.95
40
0.6
0
CIRCLE
8
0
10
239
20
-141.95
40
0.6
0
CIRCLE
8
0
10
239
20
-124.95
40
0.6
0
CIRCLE
8
0
10
239
20
-107.95
40
0.6
0
CIRCLE
8
0
10
263.75
20
-163.2
40
0.6
0
CIRCLE
8
0
10
241.25
20
-163.2
40
0.6
0
CIRCLE
8
0
10
223.25
20
-175.95
40
0.6
0
CIRCLE
8
0
10
90
20
-144.1
40
1.2
0
CIRCLE
8
0
10
90
20
-127.1
40
1.2
0
CIRCLE
8
0
10
90
20
-110.1
40
1.2
0
CIRCLE
8
0
10
108
20
-144.1
40
1.2
0
CIRCLE
8
0
10
108
20
-127.1
40
1.2
0
CIRCLE
8
0
10
108
20
-110.1
40
1.2
0
CIRCLE
8
0
10
126
20
-139.85
40
1.2
0
CIRCLE
8
0
10
126
20
-122.85
40
1.2
0
CIRCLE
8
0
10
126
20
-105.85
40
1.2
0
CIRCLE
8
0
10
144
20
-135.6
40
1.2
0
CIRCLE
8
0
10
144
20
-118.6
40
1.2
0
CIRCLE
8
0
10
144
20
-101.6
40
1.2
0
CIRCLE
8
0
10
162
20
-139.85
40
1.2
0
CIRCLE
8
0
10
162
20
-122.85
40
1.2
0
CIRCLE
8
0
10
162
20
-105.85
40
1.2
0
CIRCLE
8
0
10
180
20
-139.85
40
1.2
0
CIRCLE
8
0
10
180
20
-122.85
40
1.2
0
CIRCLE
8
0
10
180
20
-105.85
40
1.2
0
CIRCLE
8
0
10
155.25
20
-161.1
40
1.2
0
CIRCLE
8
0
10
177.75
20
-161.1
40
1.2
0
CIRCLE
8
0
10
195.75
20
-173.85
40
1.2
0
CIRCLE
8
0
10
324
20
-144.1
40
1.2
0
CIRCLE
8
0
10
324
20
-127.1
40
1.2
0
CIRCLE
8
0
10
324
20
-110.1
40
1.2
0
CIRCLE
8
0
10
306
20
-144.1
40
1.2
0
CIRCLE
8
0
10
306
20
-127.1
40
1.2
0
CIRCLE
8
0
10
306
20
-110.1
40
1.2
0
CIRCLE
8
0
10
288
20
-139.85
40
1.2
0
CIRCLE
8
0
10
288
20
-122.85
40
1.2
0
CIRCLE
8
0
10
288
20
-105.85
40
1.2
0
CIRCLE
8
0
10
270
20
-135.6
40
1.2
0
CIRCLE
8
0
10
270
20
-118.6
40
1.2
0
CIRCLE
8
0
10
270
20
-101.6
40
1.2
0
CIRCLE
8
0
10
252
20
-139.85
40
1.2
0
CIRCLE
8
0
10
252
20
-122.85
40
1.2
0
CIRCLE
8
0
10
252
20
-105.85
40
1.2
0
CIRCLE
8
0
10
234
20
-139.85
40
1.2
0
CIRCLE
8
0
10
234
20
-122.85
40
1.2
0
CIRCLE
8
0
10
234
20
-105.85
40
1.2
0
CIRCLE
8
0
10
258.75
20
-161.1
40
1.2
0
CIRCLE
8
0
10
236.25
20
-161.1
40
1.2
0
CIRCLE
8
0
10
218.25
20
-173.85
40
1.2
0
CIRCLE
8
0
10
95
20
-146.2
40
1.2
0
CIRCLE
8
0
10
95
20
-129.2
40
1.2
0
CIRCLE
8
0
10
95
20
-112.2
40
1.2
0
CIRCLE
8
0
10
113
20
-146.2
40
1.2
0
CIRCLE
8
0
10
113
20
-129.2
40
1.2
0
CIRCLE
8
0
10
113
20
-112.2
40
1.2
0
CIRCLE
8
0
10
131
20
-141.95
40
1.2
0
CIRCLE
8
0
10
131
20
-124.95
40
1.2
0
CIRCLE
8
0
10
131
20
-107.95
40
1.2
0
CIRCLE
8
0
10
149
20
-137.7
40
1.2
0
CIRCLE
8
0
10
149
20
-120.7
40
1.2
0
CIRCLE
8
0
10
149
20
-103.7
40
1.2
0
CIRCLE
8
0
10
167
20
-141.95
40
1.2
0
CIRCLE
8
0
10
167
20
-124.95
40
1.2
0
CIRCLE
8
0
10
167
20
-107.95
40
1.2
0
CIRCLE
8
0
10
185
20
-141.95
40
1.2
0
CIRCLE
8
0
10
185
20
-124.95
40
1.2
0
CIRCLE
8
0
10
185
20
-107.95
40
1.2
0
CIRCLE
8
0
10
160.25
20
-163.2
40
1.2
0
CIRCLE
8
0
10
182.75
20
-163.2
40
1.2
0
CIRCLE
8
0
10
200.75
20
-175.95
40
1.2
0
CIRCLE
8
0
10
329
20
-146.2
40
1.2
0
CIRCLE
8
0
10
329
20
-129.2
40
1.2
0
CIRCLE
8
0
10
329
20
-112.2
40
1.2
0
CIRCLE
8
0
10
311
20
-146.2
40
1.2
0
CIRCLE
8
0
10
311
20
-129.2
40
1.2
0
CIRCLE
8
0
10
311
20
-112.2
40
1.2
0
CIRCLE
8
0
10
293
20
-141.95
40
1.2
0
CIRCLE
8
0
10
293
20
-124.95
40
1.2
0
CIRCLE
8
0
10
293
20
-107.95
40
1.2
0
CIRCLE
8
0
10
275
20
-137.7
40
1.2
0
CIRCLE
8
0
10
275
20
-120.7
40
1.2
0
CIRCLE
8
0
10
275
20
-103.7
40
1.2
0
CIRCLE
8
0
10
257
20
-141.95
40
1.2
0
CIRCLE
8
0
10
257
20
-124.95
40
1.2
0
CIRCLE
8
0
10
257
20
-107.95
40
1.2
0
CIRCLE
8
0
10
239
20
-141.95
40
1.2
0
CIRCLE
8
0
10
239
20
-124.95
40
1.2
0
CIRCLE
8
0
10
239
20
-107.95
40
1.2
0
CIRCLE
8
0
10
263.75
20
-163.2
40
1.2
0
CIRCLE
8
0
10
241.25
20
-163.2
40
1.2
0
CIRCLE
8
0
10
223.25
20
-175.95
40
1.2
0
LINE
8
0
10
201
20
-136.534
11
213
21
-136.534
0
LINE
8
0
10
213
20
-136.534
11
213
21
-106.534
0
LINE
8
0
10
213
20
-106.534
11
201
21
-106.534
0
LINE
8
0
10
201
20
-106.534
11
201
21
-136.534
0
ENDSEC
0
EOF