0
SECTION
2
HEADER
9
$INSUNITS
70
4
0
ENDSEC
0
SECTION
2
TABLES
0
TABLE
2
LTYPE
0
LTYPE
72
65
70
64
2
CONTINUOUS
3
______
73
0
40
0
0
ENDTAB
0
TABLE
2
LAYER
0
ENDTAB
0
ENDSEC
0
SECTION
2
ENTITIES
0
LINE
8
0
10
326.625
20
-192.5
11
87.375
21
-192.5
0
LINE
8
0
10
81
20
-186.125
11
81
21
-101.125
0
LINE
8
0
10
87.375
20
-94.75
11
326.625
21
-94.75
0
LINE
8
0
10
333
20
-101.125
11
333
21
-186.125
0
ARC
8
0
10
87.375
20
-186.125
40
6.375
50
180
51
270
0
ARC
8
0
10
87.375
20
-101.125
40
6.375
50
90
51
180
0
ARC
8
0
10
326.625
20
-101.125
40
6.375
50
0
51
90
0
ARC
8
0
10
326.625
20
-186.125
40
6.375
50
270
51
0
0
LINE
8
0
10
81.25
20
-158.25
11
98.75
21
-158.25
0
LINE
8
0
10
98.75
20
-158.25
11
98.75
21
-141.75
0
LINE
8
0
10
98.75
20
-141.75
11
81.25
21
-141.75
0
LINE
8
0
10
81.25
20
-141.75
11
81.25
21
-158.25
0
LINE
8
0
10
81.25
20
-141.25
11
98.75
21
-141.25
0
LINE
8
0
10
98.75
20
-141.25
11
98.75
21
-124.75
0
LINE
8
0
10
98.75
20
-124.75
11
81.25
21
-124.75
0
LINE
8
0
10
81.25
20
-124.75
11
81.25
21
-141.25
0
LINE
8
0
10
81.25
20
-124.25
11
98.75
21
-124.25
0
LINE
8
0
10
98.75
20
-124.25
11
98.75
21
-107.75
0
LINE
8
0
10
98.75
20
-107.75
11
81.25
21
-107.75
0
LINE
8
0
10
81.25
20
-107.75
11
81.25
21
-124.25
0
LINE
8
0
10
99.25
20
-158.25
11
116.75
21
-158.25
0
LINE
8
0
10
116.75
20
-158.25
11
116.75
21
-141.75
0
LINE
8
0
10
116.75
20
-141.75
11
99.25
21
-141.75
0
LINE
8
0
10
99.25
20
-141.75
11
99.25
21
-158.25
0
LINE
8
0
10
99.25
20
-141.25
11
116.75
21
-141.25
0
LINE
8
0
10
116.75
20
-141.25
11
116.75
21
-124.75
0
LINE
8
0
10
116.75
20
-124.75
11
99.25
21
-124.75
0
LINE
8
0
10
99.25
20
-124.75
11
99.25
21
-141.25
0
LINE
8
0
10
99.25
20
-124.25
11
116.75
21
-124.25
0
LINE
8
0
10
116.75
20
-124.25
11
116.75
21
-107.75
0
LINE
8
0
10
116.75
20
-107.75
11
99.25
21
-107.75
0
LINE
8
0
10
99.25
20
-107.75
11
99.25
21
-124.25
0
LINE
8
0
10
117.25
20
-154
11
134.75
21
-154
0
LINE
8
0
10
134.75
20
-154
11
134.75
21
-137.5
0
LINE
8
0
10
134.75
20
-137.5
11
117.25
21
-137.5
0
LINE
8
0
10
117.25
20
-137.5
11
117.25
21
-154
0
LINE
8
0
10
117.25
20
-137
11
134.75
21
-137
0
LINE
8
0
10
134.75
20
-137
11
134.75
21
-120.5
0
LINE
8
0
10
134.75
20
-120.5
11
117.25
21
-120.5
0
LINE
8
0
10
117.25
20
-120.5
11
117.25
21
-137
0
LINE
8
0
10
117.25
20
-120
11
134.75
21
-120
0
LINE
8
0
10
134.75
20
-120
11
134.75
21
-103.5
0
LINE
8
0
10
134.75
20
-103.5
11
117.25
21
-103.5
0
LINE
8
0
10
117.25
20
-103.5
11
117.25
21
-120
0
LINE
8
0
10
135.25
20
-149.75
11
152.75
21
-149.75
0
LINE
8
0
10
152.75
20
-149.75
11
152.75
21
-133.25
0
LINE
8
0
10
152.75
20
-133.25
11
135.25
21
-133.25
0
LINE
8
0
10
135.25
20
-133.25
11
135.25
21
-149.75
0
LINE
8
0
10
135.25
20
-132.75
11
152.75
21
-132.75
0
LINE
8
0
10
152.75
20
-132.75
11
152.75
21
-116.25
0
LINE
8
0
10
152.75
20
-116.25
11
135.25
21
-116.25
0
LINE
8
0
10
135.25
20
-116.25
11
135.25
21
-132.75
0
LINE
8
0
10
135.25
20
-115.75
11
152.75
21
-115.75
0
LINE
8
0
10
152.75
20
-115.75
11
152.75
21
-99.25
0
LINE
8
0
10
152.75
20
-99.25
11
135.25
21
-99.25
0
LINE
8
0
10
135.25
20
-99.25
11
135.25
21
-115.75
0
LINE
8
0
10
153.25
20
-154
11
170.75
21
-154
0
LINE
8
0
10
170.75
20
-154
11
170.75
21
-137.5
0
LINE
8
0
10
170.75
20
-137.5
11
153.25
21
-137.5
0
LINE
8
0
10
153.25
20
-137.5
11
153.25
21
-154
0
LINE
8
0
10
153.25
20
-137
11
170.75
21
-137
0
LINE
8
0
10
170.75
20
-137
11
170.75
21
-120.5
0
LINE
8
0
10
170.75
20
-120.5
11
153.25
21
-120.5
0
LINE
8
0
10
153.25
20
-120.5
11
153.25
21
-137
0
LINE
8
0
10
153.25
20
-120
11
170.75
21
-120
0
LINE
8
0
10
170.75
20
-120
11
170.75
21
-103.5
0
LINE
8
0
10
170.75
20
-103.5
11
153.25
21
-103.5
0
LINE
8
0
10
153.25
20
-103.5
11
153.25
21
-120
0
LINE
8
0
10
171.25
20
-154
11
188.75
21
-154
0
LINE
8
0
10
188.75
20
-154
11
188.75
21
-137.5
0
LINE
8
0
10
188.75
20
-137.5
11
171.25
21
-137.5
0
LINE
8
0
10
171.25
20
-137.5
11
171.25
21
-154
0
LINE
8
0
10
171.25
20
-137
11
188.75
21
-137
0
LINE
8
0
10
188.75
20
-137
11
188.75
21
-120.5
0
LINE
8
0
10
188.75
20
-120.5
11
171.25
21
-120.5
0
LINE
8
0
10
171.25
20
-120.5
11
171.25
21
-137
0
LINE
8
0
10
171.25
20
-120
11
188.75
21
-120
0
LINE
8
0
10
188.75
20
-120
11
188.75
21
-103.5
0
LINE
8
0
10
188.75
20
-103.5
11
171.25
21
-103.5
0
LINE
8
0
10
171.25
20
-103.5
11
171.25
21
-120
0
LINE
8
0
10
146.5
20
-175.25
11
164
21
-175.25
0
LINE
8
0
10
164
20
-175.25
11
164
21
-158.75
0
LINE
8
0
10
164
20
-158.75
11
146.5
21
-158.75
0
LINE
8
0
10
146.5
20
-158.75
11
146.5
21
-175.25
0
LINE
8
0
10
169
20
-175.25
11
186.5
21
-175.25
0
LINE
8
0
10
186.5
20
-175.25
11
186.5
21
-158.75
0
LINE
8
0
10
186.5
20
-158.75
11
169
21
-158.75
0
LINE
8
0
10
169
20
-158.75
11
169
21
-175.25
0
LINE
8
0
10
187
20
-188
11
204.5
21
-188
0
LINE
8
0
10
204.5
20
-188
11
204.5
21
-171.5
0
LINE
8
0
10
204.5
20
-171.5
11
187
21
-171.5
0
LINE
8
0
10
187
20
-171.5
11
187
21
-188
0
LINE
8
0
10
315.25
20
-158.25
11
332.75
21
-158.25
0
LINE
8
0
10
332.75
20
-158.25
11
332.75
21
-141.75
0
LINE
8
0
10
332.75
20
-141.75
11
315.25
21
-141.75
0
LINE
8
0
10
315.25
20
-141.75
11
315.25
21
-158.25
0
LINE
8
0
10
315.25
20
-141.25
11
332.75
21
-141.25
0
LINE
8
0
10
332.75
20
-141.25
11
332.75
21
-124.75
0
LINE
8
0
10
332.75
20
-124.75
11
315.25
21
-124.75
0
LINE
8
0
10
315.25
20
-124.75
11
315.25
21
-141.25
0
LINE
8
0
10
315.25
20
-124.25
11
332.75
21
-124.25
0
LINE
8
0
10
332.75
20
-124.25
11
332.75
21
-107.75
0
LINE
8
0
10
332.75
20
-107.75
11
315.25
21
-107.75
0
LINE
8
0
10
315.25
20
-107.75
11
315.25
21
-124.25
0
LINE
8
0
10
297.25
20
-158.25
11
314.75
21
-158.25
0
LINE
8
0
10
314.75
20
-158.25
11
314.75
21
-141.75
0
LINE
8
0
10
314.75
20
-141.75
11
297.25
21
-141.75
0
LINE
8
0
10
297.25
20
-141.75
11
297.25
21
-158.25
0
LINE
8
0
10
297.25
20
-141.25
11
314.75
21
-141.25
0
LINE
8
0
10
314.75
20
-141.25
11
314.75
21
-124.75
0
LINE
8
0
10
314.75
20
-124.75
11
297.25
21
-124.75
0
LINE
8
0
10
297.25
20
-124.75
11
297.25
21
-141.25
0
LINE
8
0
10
297.25
20
-124.25
11
314.75
21
-124.25
0
LINE
8
0
10
314.75
20
-124.25
11
314.75
21
-107.75
0
LINE
8
0
10
314.75
20
-107.75
11
297.25
21
-107.75
0
LINE
8
0
10
297.25
20
-107.75
11
297.25
21
-124.25
0
LINE
8
0
10
279.25
20
-154
11
296.75
21
-154
0
LINE
8
0
10
296.75
20
-154
11
296.75
21
-137.5
0
LINE
8
0
10
296.75
20
-137.5
11
279.25
21
-137.5
0
LINE
8
0
10
279.25
20
-137.5
11
279.25
21
-154
0
LINE
8
0
10
279.25
20
-137
11
296.75
21
-137
0
LINE
8
0
10
296.75
20
-137
11
296.75
21
-120.5
0
LINE
8
0
10
296.75
20
-120.5
11
279.25
21
-120.5
0
LINE
8
0
10
279.25
20
-120.5
11
279.25
21
-137
0
LINE
8
0
10
279.25
20
-120
11
296.75
21
-120
0
LINE
8
0
10
296.75
20
-120
11
296.75
21
-103.5
0
LINE
8
0
10
296.75
20
-103.5
11
279.25
21
-103.5
0
LINE
8
0
10
279.25
20
-103.5
11
279.25
21
-120
0
LINE
8
0
10
261.25
20
-149.75
11
278.75
21
-149.75
0
LINE
8
0
10
278.75
20
-149.75
11
278.75
21
-133.25
0
LINE
8
0
10
278.75
20
-133.25
11
261.25
21
-133.25
0
LINE
8
0
10
261.25
20
-133.25
11
261.25
21
-149.75
0
LINE
8
0
10
261.25
20
-132.75
11
278.75
21
-132.75
0
LINE
8
0
10
278.75
20
-132.75
11
278.75
21
-116.25
0
LINE
8
0
10
278.75
20
-116.25
11
261.25
21
-116.25
0
LINE
8
0
10
261.25
20
-116.25
11
261.25
21
-132.75
0
LINE
8
0
10
261.25
20
-115.75
11
278.75
21
-115.75
0
LINE
8
0
10
278.75
20
-115.75
11
278.75
21
-99.25
0
LINE
8
0
10
278.75
20
-99.25
11
261.25
21
-99.25
0
LINE
8
0
10
261.25
20
-99.25
11
261.25
21
-115.75
0
LINE
8
0
10
243.25
20
-154
11
260.75
21
-154
0
LINE
8
0
10
260.75
20
-154
11
260.75
21
-137.5
0
LINE
8
0
10
260.75
20
-137.5
11
243.25
21
-137.5
0
LINE
8
0
10
243.25
20
-137.5
11
243.25
21
-154
0
LINE
8
0
10
243.25
20
-137
11
260.75
21
-137
0
LINE
8
0
10
260.75
20
-137
11
260.75
21
-120.5
0
LINE
8
0
10
260.75
20
-120.5
11
243.25
21
-120.5
0
LINE
8
0
10
243.25
20
-120.5
11
243.25
21
-137
0
LINE
8
0
10
243.25
20
-120
11
260.75
21
-120
0
LINE
8
0
10
260.75
20
-120
11
260.75
21
-103.5
0
LINE
8
0
10
260.75
20
-103.5
11
243.25
21
-103.5
0
LINE
8
0
10
243.25
20
-103.5
11
243.25
21
-120
0
LINE
8
0
10
225.25
20
-154
11
242.75
21
-154
0
LINE
8
0
10
242.75
20
-154
11
242.75
21
-137.5
0
LINE
8
0
10
242.75
20
-137.5
11
225.25
21
-137.5
0
LINE
8
0
10
225.25
20
-137.5
11
225.25
21
-154
0
LINE
8
0
10
225.25
20
-137
11
242.75
21
-137
0
LINE
8
0
10
242.75
20
-137
11
242.75
21
-120.5
0
LINE
8
0
10
242.75
20
-120.5
11
225.25
21
-120.5
0
LINE
8
0
10
225.25
20
-120.5
11
225.25
21
-137
0
LINE
8
0
10
225.25
20
-120
11
242.75
21
-120
0
LINE
8
0
10
242.75
20
-120
11
242.75
21
-103.5
0
LINE
8
0
10
242.75
20
-103.5
11
225.25
21
-103.5
0
LINE
8
0
10
225.25
20
-103.5
11
225.25
21
-120
0
LINE
8
0
10
250
20
-175.25
11
267.5
21
-175.25
0
LINE
8
0
10
267.5
20
-175.25
11
267.5
21
-158.75
0
LINE
8
0
10
267.5
20
-158.75
11
250
21
-158.75
0
LINE
8
0
10
250
20
-158.75
11
250
21
-175.25
0
LINE
8
0
10
227.5
20
-175.25
11
245
21
-175.25
0
LINE
8
0
10
245
20
-175.25
11
245
21
-158.75
0
LINE
8
0
10
245
20
-158.75
11
227.5
21
-158.75
0
LINE
8
0
10
227.5
20
-158.75
11
227.5
21
-175.25
0
LINE
8
0
10
209.5
20
-188
11
227
21
-188
0
LINE
8
0
10
227
20
-188
11
227
21
-171.5
0
LINE
8
0
10
227
20
-171.5
11
209.5
21
-171.5
0
LINE
8
0
10
209.5
20
-171.5
11
209.5
21
-188
0
LINE
8
0
10
190.25
20
-154
11
223.75
21
-154
0
LINE
8
0
10
224.75
20
-153
11
224.75
21
-104.5
0
LINE
8
0
10
223.75
20
-103.5
11
190.25
21
-103.5
0
LINE
8
0
10
189.25
20
-104.5
11
189.25
21
-153
0
ARC
8
0
10
223.75
20
-153
40
1
50
270
51
0
0
ARC
8
0
10
223.75
20
-104.5
40
1
50
0
51
90
0
ARC
8
0
10
190.25
20
-104.5
40
1
50
90
51
180
0
ARC
8
0
10
190.25
20
-153
40
1
50
180
51
270
0
CIRCLE
8
0
10
193.75
20
-145.75
40
1
0
CIRCLE
8
0
10
193.75
20
-111.75
40
1
0
CIRCLE
8
0
10
220.25
20
-145.75
40
1
0
CIRCLE
8
0
10
220.25
20
-111.75
40
1
0
CIRCLE
8
0
10
87.375
20
-186.125
40
1
0
CIRCLE
8
0
10
87.375
20
-101.125
40
1
0
CIRCLE
8
0
10
326.625
20
-186.125
40
1
0
CIRCLE
8
0
10
326.625
20
-101.125
40
1
0
ENDSEC
0
EOF