0
SECTION
2
HEADER
9
$INSUNITS
70
4
0
ENDSEC
0
SECTION
2
TABLES
0
TABLE
2
LTYPE
0
LTYPE
72
65
70
64
2
CONTINUOUS
3
______
73
0
40
0
0
ENDTAB
0
TABLE
2
LAYER
0
ENDTAB
0
ENDSEC
0
SECTION
2
ENTITIES
0
LINE
8
0
10
81
20
-158.5
11
117
21
-158.5
0
LINE
8
0
10
81
20
-158.5
11
81
21
-109.625
0
LINE
8
0
10
96.375
20
-107.5
11
117
21
-107.5
0
LINE
8
0
10
117
20
-158.5
11
117
21
-154.25
0
LINE
8
0
10
117
20
-154.25
11
135
21
-154.25
0
LINE
8
0
10
135
20
-154.25
11
135
21
-150
0
LINE
8
0
10
135
20
-103.25
11
117
21
-103.25
0
LINE
8
0
10
117
20
-103.25
11
117
21
-107.5
0
LINE
8
0
10
135
20
-150
11
153
21
-150
0
LINE
8
0
10
153
20
-103.25
11
153
21
-99
0
LINE
8
0
10
153
20
-99
11
135
21
-99
0
LINE
8
0
10
135
20
-99
11
135
21
-103.25
0
LINE
8
0
10
153
20
-154.25
11
180
21
-154.25
0
LINE
8
0
10
153
20
-150
11
153
21
-154.25
0
LINE
8
0
10
153
20
-103.25
11
180
21
-103.25
0
LINE
8
0
10
189
20
-137.25
11
189
21
-120.25
0
LINE
8
0
10
146.25
20
-175.5
11
164.25
21
-175.5
0
LINE
8
0
10
164.25
20
-175.5
11
164.25
21
-158.5
0
LINE
8
0
10
164.25
20
-158.5
11
146.25
21
-158.5
0
LINE
8
0
10
146.25
20
-158.5
11
146.25
21
-175.5
0
LINE
8
0
10
168.75
20
-175.5
11
186.75
21
-175.5
0
LINE
8
0
10
186.75
20
-171.25
11
186.75
21
-162.75
0
LINE
8
0
10
180
20
-158.5
11
168.75
21
-158.5
0
LINE
8
0
10
168.75
20
-158.5
11
168.75
21
-175.5
0
LINE
8
0
10
186.75
20
-188.25
11
204.75
21
-188.25
0
LINE
8
0
10
204.75
20
-188.25
11
204.75
21
-171.25
0
LINE
8
0
10
204.75
20
-171.25
11
186.75
21
-171.25
0
LINE
8
0
10
186.75
20
-175.5
11
186.75
21
-188.25
0
LINE
8
0
10
72
20
-201
11
90
21
-201
0
LINE
8
0
10
90
20
-201
11
90
21
-194.625
0
LINE
8
0
10
78.375
20
-184
11
72
21
-184
0
LINE
8
0
10
72
20
-184
11
72
21
-201
0
LINE
8
0
10
72
20
-103.25
11
78.375
21
-103.25
0
LINE
8
0
10
90
20
-92.625
11
90
21
-86.25
0
LINE
8
0
10
90
20
-86.25
11
72
21
-86.25
0
LINE
8
0
10
72
20
-86.25
11
72
21
-103.25
0
LINE
8
0
10
186.75
20
-162.75
11
198
21
-162.75
0
LINE
8
0
10
198
20
-162.75
11
198
21
-154.25
0
LINE
8
0
10
180
20
-154.25
11
180
21
-158.5
0
LINE
8
0
10
198
20
-103.25
11
198
21
-94.75
0
LINE
8
0
10
198
20
-94.75
11
180
21
-94.75
0
LINE
8
0
10
180
20
-94.75
11
180
21
-103.25
0
LINE
8
0
10
198
20
-154.25
11
202.75
21
-154.25
0
LINE
8
0
10
202.75
20
-154.25
11
202.75
21
-137.25
0
LINE
8
0
10
202.75
20
-137.25
11
189
21
-137.25
0
LINE
8
0
10
189
20
-120.25
11
202.75
21
-120.25
0
LINE
8
0
10
202.75
20
-120.25
11
202.75
21
-103.25
0
LINE
8
0
10
202.75
20
-103.25
11
198
21
-103.25
0
LINE
8
0
10
90
20
-194.625
11
96.375
21
-194.625
0
LINE
8
0
10
96.375
20
-194.625
11
96.375
21
-177.625
0
LINE
8
0
10
96.375
20
-177.625
11
78.375
21
-177.625
0
LINE
8
0
10
78.375
20
-177.625
11
78.375
21
-184
0
LINE
8
0
10
78.375
20
-109.625
11
81
21
-109.625
0
LINE
8
0
10
96.375
20
-107.5
11
96.375
21
-92.625
0
LINE
8
0
10
96.375
20
-92.625
11
90
21
-92.625
0
LINE
8
0
10
78.375
20
-103.25
11
78.375
21
-109.625
0
LINE
8
0
10
297
20
-158.5
11
333
21
-158.5
0
LINE
8
0
10
333
20
-158.5
11
333
21
-109.625
0
LINE
8
0
10
297
20
-107.5
11
317.625
21
-107.5
0
LINE
8
0
10
297
20
-154.25
11
297
21
-158.5
0
LINE
8
0
10
279
20
-154.25
11
297
21
-154.25
0
LINE
8
0
10
279
20
-150
11
279
21
-154.25
0
LINE
8
0
10
297
20
-107.5
11
297
21
-103.25
0
LINE
8
0
10
297
20
-103.25
11
279
21
-103.25
0
LINE
8
0
10
261
20
-150
11
279
21
-150
0
LINE
8
0
10
279
20
-103.25
11
279
21
-99
0
LINE
8
0
10
279
20
-99
11
261
21
-99
0
LINE
8
0
10
261
20
-99
11
261
21
-103.25
0
LINE
8
0
10
234
20
-154.25
11
261
21
-154.25
0
LINE
8
0
10
261
20
-154.25
11
261
21
-150
0
LINE
8
0
10
234
20
-103.25
11
261
21
-103.25
0
LINE
8
0
10
225
20
-120.25
11
225
21
-137.25
0
LINE
8
0
10
249.75
20
-175.5
11
267.75
21
-175.5
0
LINE
8
0
10
267.75
20
-175.5
11
267.75
21
-158.5
0
LINE
8
0
10
267.75
20
-158.5
11
249.75
21
-158.5
0
LINE
8
0
10
249.75
20
-158.5
11
249.75
21
-175.5
0
LINE
8
0
10
227.25
20
-175.5
11
245.25
21
-175.5
0
LINE
8
0
10
245.25
20
-175.5
11
245.25
21
-158.5
0
LINE
8
0
10
245.25
20
-158.5
11
234
21
-158.5
0
LINE
8
0
10
227.25
20
-162.75
11
227.25
21
-171.25
0
LINE
8
0
10
209.25
20
-188.25
11
227.25
21
-188.25
0
LINE
8
0
10
227.25
20
-188.25
11
227.25
21
-175.5
0
LINE
8
0
10
227.25
20
-171.25
11
209.25
21
-171.25
0
LINE
8
0
10
209.25
20
-171.25
11
209.25
21
-188.25
0
LINE
8
0
10
324
20
-201
11
342
21
-201
0
LINE
8
0
10
342
20
-201
11
342
21
-184
0
LINE
8
0
10
342
20
-184
11
335.625
21
-184
0
LINE
8
0
10
324
20
-194.625
11
324
21
-201
0
LINE
8
0
10
335.625
20
-103.25
11
342
21
-103.25
0
LINE
8
0
10
342
20
-103.25
11
342
21
-86.25
0
LINE
8
0
10
342
20
-86.25
11
324
21
-86.25
0
LINE
8
0
10
324
20
-86.25
11
324
21
-92.625
0
LINE
8
0
10
216
20
-162.75
11
227.25
21
-162.75
0
LINE
8
0
10
234
20
-158.5
11
234
21
-154.25
0
LINE
8
0
10
216
20
-154.25
11
216
21
-162.75
0
LINE
8
0
10
234
20
-103.25
11
234
21
-94.75
0
LINE
8
0
10
234
20
-94.75
11
216
21
-94.75
0
LINE
8
0
10
216
20
-94.75
11
216
21
-103.25
0
LINE
8
0
10
211.25
20
-154.25
11
216
21
-154.25
0
LINE
8
0
10
225
20
-137.25
11
211.25
21
-137.25
0
LINE
8
0
10
211.25
20
-137.25
11
211.25
21
-154.25
0
LINE
8
0
10
211.25
20
-120.25
11
225
21
-120.25
0
LINE
8
0
10
216
20
-103.25
11
211.25
21
-103.25
0
LINE
8
0
10
211.25
20
-103.25
11
211.25
21
-120.25
0
LINE
8
0
10
317.625
20
-194.625
11
324
21
-194.625
0
LINE
8
0
10
335.625
20
-184
11
335.625
21
-177.625
0
LINE
8
0
10
335.625
20
-177.625
11
317.625
21
-177.625
0
LINE
8
0
10
317.625
20
-177.625
11
317.625
21
-194.625
0
LINE
8
0
10
333
20
-109.625
11
335.625
21
-109.625
0
LINE
8
0
10
335.625
20
-109.625
11
335.625
21
-103.25
0
LINE
8
0
10
324
20
-92.625
11
317.625
21
-92.625
0
LINE
8
0
10
317.625
20
-92.625
11
317.625
21
-107.5
0
ENDSEC
0
EOF